ISO-10303-21;
HEADER;
FILE_DESCRIPTION(('ViewDefinition [CoordinationView, QuantityTakeOffAddOnView]','RevitIdentifiers [ContentGUID: 7ac3672f-21a2-4df8-a841-97b36b513050, VersionGUID: 5ac14129-edb5-4ea8-a9aa-a26dc3ad282c, NumberOfSaves: 426]','CoordinateReference [CoordinateBase: Shared Coordinates, ProjectSite: Internal]'),'2;1');
FILE_NAME('Untitled.ifc','2026-09-05T10:41:47+05:30',(''),(''),'IfcOpenShell 0.8.5','Bonsai 0.8.5','');
FILE_SCHEMA(('IFC4X3_ADD2'));
ENDSEC;
DATA;
#1=IFCORGANIZATION($,'Autodesk Revit 2026 (ENU)',$,$,$);
#2=IFCAPPLICATION(#1,'2026','Autodesk Revit 2026 (ENU)','Revit');
#3=IFCPERSON($,'','phshahid78',$,$,$,$,$);
#4=IFCORGANIZATION($,'','',$,$);
#5=IFCPERSONANDORGANIZATION(#3,#4,$);
#6=IFCOWNERHISTORY(#5,#2,$,.NOCHANGE.,$,$,$,1770657044);
#7=IFCSIUNIT(*,.LENGTHUNIT.,.CENTI.,.METRE.);
#8=IFCSIUNIT(*,.AREAUNIT.,$,.SQUARE_METRE.);
#9=IFCSIUNIT(*,.VOLUMEUNIT.,$,.CUBIC_METRE.);
#10=IFCCARTESIANPOINT((0.,0.,0.));
#11=IFCAXIS2PLACEMENT3D(#10,$,$);
#12=IFCDIRECTION((0.,1.));
#13=IFCGEOMETRICREPRESENTATIONCONTEXT($,'Model',3,0.001,#11,#12);
#14=IFCGEOMETRICREPRESENTATIONSUBCONTEXT('Axis','Model',*,*,*,*,#13,$,.GRAPH_VIEW.,$);
#15=IFCGEOMETRICREPRESENTATIONSUBCONTEXT('Body','Model',*,*,*,*,#13,$,.MODEL_VIEW.,$);
#16=IFCGEOMETRICREPRESENTATIONSUBCONTEXT('Box','Model',*,*,*,*,#13,$,.MODEL_VIEW.,$);
#17=IFCGEOMETRICREPRESENTATIONSUBCONTEXT('FootPrint','Model',*,*,*,*,#13,$,.MODEL_VIEW.,$);
#18=IFCPROJECT('1wmsSl8Q9D_AX1bxEKhi_W',#6,'Project  Number',$,$,'Project Name','Project  Status',(#13),#1257);
#19=IFCPOSTALADDRESS($,$,$,$,('## Street\X2\000D000A\X0\City, State  Zip'),$,'','Boston','','MA');
#20=IFCAXIS2PLACEMENT3D(#10,$,$);
#21=IFCLOCALPLACEMENT(#35,#20);
#22=IFCBUILDING('1wmsSl8Q9D_AX1bxEKhi_X',#6,'',$,$,#21,$,'',.ELEMENT.,$,$,#19);
#23=IFCAXIS2PLACEMENT3D(#10,$,$);
#24=IFCLOCALPLACEMENT(#21,#23);
#25=IFCBUILDINGSTOREY('1vK3KfqgSHqv5Y0026FnIY',#6,'Ground Level',$,$,#24,$,'Ground Level',.ELEMENT.,0.);
#26=IFCCARTESIANPOINT((0.,0.,50.));
#27=IFCAXIS2PLACEMENT3D(#26,$,$);
#28=IFCLOCALPLACEMENT(#21,#27);
#29=IFCBUILDINGSTOREY('2DjbV_x2j23BsxEmD5wnk2',#1276,'Floor Level',$,$,#28,$,'Floor Level',.ELEMENT.,49.999999999999162);
#30=IFCCARTESIANPOINT((0.,0.,400.));
#31=IFCAXIS2PLACEMENT3D(#30,$,$);
#32=IFCLOCALPLACEMENT(#21,#31);
#33=IFCBUILDINGSTOREY('14lOI8vZuHqv6B0026Fnc4',#6,'Slab Level',$,$,#32,$,'Slab Level',.ELEMENT.,400.00000000008669);
#34=IFCAXIS2PLACEMENT3D(#10,$,$);
#35=IFCLOCALPLACEMENT($,#34);
#36=IFCSITE('1wmsSl8Q9D_AX1bxEKhi_Y',#6,'Default',$,$,#35,$,$,.ELEMENT.,(42,21,31,181945),(-71,-3,-24,-263305),0.,$,$);
#37=IFCPROPERTYSINGLEVALUE('Reference',$,IFCIDENTIFIER('Project Information'),$);
#38=IFCPROPERTYSET('2HmGd_6$6U7SlvvIPNpw0Y',#6,'Pset_SiteCommon',$,(#37));
#39=IFCPROPERTYSINGLEVALUE('IsExternal',$,IFCBOOLEAN(.F.),$);
#40=IFCPROPERTYSET('1iHU9d7sg9X3AGZZBxv8hn',#6,'Pset_SpaceCommon',$,(#37,#39));
#41=IFCRELDEFINESBYPROPERTIES('2OUR3v2PQ$wk6BrVcUJ3qH',#6,$,$,(#36),#38);
#42=IFCRELDEFINESBYPROPERTIES('1SOSt4cmEJj715nET$PzdO',#6,$,$,(#36),#40);
#43=IFCCARTESIANPOINT((-1135.2327241955347,346.63407546614468,-0.));
#44=IFCDIRECTION((0.,0.,1.));
#45=IFCDIRECTION((0.,-1.,0.));
#46=IFCAXIS2PLACEMENT3D(#43,#44,#45);
#47=IFCLOCALPLACEMENT(#28,#46);
#48=IFCCARTESIANPOINT((0.,0.));
#49=IFCCARTESIANPOINT((620.,0.));
#50=IFCPOLYLINE((#48,#49));
#51=IFCSHAPEREPRESENTATION(#14,'Axis','Curve2D',(#50));
#52=IFCPRODUCTDEFINITIONSHAPE($,$,(#51,#63));
#53=IFCCARTESIANPOINT((310.0000000000004,-9.4146912488213275E-14));
#54=IFCDIRECTION((-1.,0.));
#55=IFCAXIS2PLACEMENT2D(#53,#54);
#56=IFCRECTANGLEPROFILEDEF(.AREA.,$,#55,620.0000000000008,20.);
#57=IFCAXIS2PLACEMENT3D(#10,$,$);
#58=IFCEXTRUDEDAREASOLID(#56,#57,#44,350.00000000008754);
#59=IFCCOLOURRGB($,0.29803921568627451,0.21568627450980393,0.23137254901960785);
#60=IFCSURFACESTYLERENDERING(#59,0.,$,$,$,$,IFCNORMALISEDRATIOMEASURE(0.5),IFCSPECULAREXPONENT(128.),.NOTDEFINED.);
#61=IFCSURFACESTYLE('Brick, Common',.BOTH.,(#60));
#62=IFCSTYLEDITEM(#58,(#61),$);
#63=IFCSHAPEREPRESENTATION(#15,'Body','SweptSolid',(#58));
#64=IFCWALL('2DjbV_x2j23BsxEmD5wnIA',#6,'Basic Wall:Wall 20 thick:215540',$,$,#47,#52,'215540',.NOTDEFINED.);
#65=IFCQUANTITYLENGTH('Height',$,$,350.00000000008754,$);
#66=IFCQUANTITYLENGTH('Length',$,$,620.0000000000008,$);
#67=IFCQUANTITYLENGTH('Width',$,$,20.,$);
#68=IFCQUANTITYAREA('GrossFootprintArea',$,$,1.2399999999999884,$);
#69=IFCQUANTITYVOLUME('GrossVolume',$,$,4.3400000000010905,$);
#70=IFCQUANTITYAREA('GrossSideArea',$,$,21.700000000005449,$);
#71=IFCQUANTITYAREA('NetSideArea',$,$,19.467400000005451,$);
#72=IFCQUANTITYVOLUME('NetVolume',$,$,3.8934800000010918,$);
#73=IFCELEMENTQUANTITY('1TVbC71YF$jwaWU_FKQzGR',#6,'Qto_WallBaseQuantities',$,$,(#65,#66,#67,#68,#69,#70,#71,#72));
#74=IFCRELDEFINESBYPROPERTIES('2JSo5aQeCmiOuMg$D4y10B',#6,$,$,(#64),#73);
#75=IFCMATERIAL('Brick, Common',$,'Masonry');
#76=IFCCOLOURRGB($,0.,0.,0.);
#77=IFCDRAUGHTINGPREDEFINEDCURVEFONT('continuous');
#78=IFCCURVESTYLE($,#77,$,#76,$);
#79=IFCFILLAREASTYLEHATCHING(#78,IFCPOSITIVELENGTHMEASURE(29.999998411421206),$,#48,45.);
#80=IFCFILLAREASTYLE('Diagonal up',(#79),$);
#81=IFCSTYLEDITEM($,(#61,#80),$);
#82=IFCSTYLEDREPRESENTATION(#13,'Style','Material and Cut Pattern',(#81));
#83=IFCMATERIALDEFINITIONREPRESENTATION($,$,(#82),#75);
#84=IFCMATERIALLAYER(#75,20.,$,'Brick, Common',$,'Masonry',$);
#85=IFCMATERIALLAYERSET((#84),'Basic Wall:Wall 20 thick',$);
#86=IFCWALLTYPE('2DjbV_x2j23BsxEmD5wngI',#6,'Basic Wall:Wall 20 thick',$,$,(#110),$,'215020',$,.STANDARD.);
#87=IFCPROPERTYSINGLEVALUE('Reference',$,IFCIDENTIFIER('Wall 20 thick'),$);
#88=IFCPROPERTYSET('0FtkkNzdY52OdqjADq6nNu',#6,'Pset_EnvironmentalImpactIndicators',$,(#87));
#89=IFCPROPERTYSINGLEVALUE('Reference',$,IFCLABEL('Wall 20 thick'),$);
#90=IFCPROPERTYSET('3umAMWUE5qagmbz3Zmcw41',#6,'Pset_ReinforcementBarPitchOfWall',$,(#89));
#91=IFCPROPERTYSINGLEVALUE('IsExternal',$,IFCBOOLEAN(.T.),$);
#92=IFCPROPERTYSINGLEVALUE('LoadBearing',$,IFCBOOLEAN(.F.),$);
#93=IFCPROPERTYSINGLEVALUE('ExtendToStructure',$,IFCBOOLEAN(.F.),$);
#94=IFCPROPERTYSET('2X17L0YqXOYUhiiHq7kJzy',#6,'Pset_WallCommon',$,(#87,#91,#92,#93));
#95=IFCRELDEFINESBYPROPERTIES('1JkKCX0MLQsQb$HAADkx5d',#6,$,$,(#64),#88);
#96=IFCRELDEFINESBYPROPERTIES('0tDgVM51v4q69VO6_TCA9s',#6,$,$,(#64),#90);
#97=IFCRELDEFINESBYPROPERTIES('0e2mYlfA64j4YhWw0KuEqz',#6,$,$,(#64),#94);
#98=IFCQUANTITYAREA('NetSurfaceArea','',$,44.522800000011252,$);
#99=IFCQUANTITYVOLUME('NetVolume','',$,3.8934800000010918,$);
#100=IFCELEMENTQUANTITY('3sVrOC5rrFWzd6KZ0iWT53',#6,'Qto_BodyGeometryValidation',$,$,(#98,#99));
#101=IFCRELDEFINESBYPROPERTIES('2BA3mJwqOeRyn8nTsjdMRq',#6,$,$,(#64),#100);
#102=IFCSIUNIT(*,.MASSUNIT.,.KILO.,.GRAM.);
#103=IFCDERIVEDUNITELEMENT(#102,1);
#104=IFCSIUNIT(*,.THERMODYNAMICTEMPERATUREUNIT.,$,.KELVIN.);
#105=IFCDERIVEDUNITELEMENT(#104,-1);
#106=IFCSIUNIT(*,.TIMEUNIT.,$,.SECOND.);
#107=IFCDERIVEDUNITELEMENT(#106,-3);
#108=IFCDERIVEDUNIT((#103,#105,#107),.THERMALTRANSMITTANCEUNIT.,$,$);
#109=IFCPROPERTYSINGLEVALUE('ThermalTransmittance',$,IFCTHERMALTRANSMITTANCEMEASURE(2.7000000000000002),$);
#110=IFCPROPERTYSET('3GrRbm98$vL7rfFxdqhUw0',#6,'Pset_WallCommon',$,(#109));
#111=IFCCARTESIANPOINT((-1125.2327241955356,-263.36592453385606,-0.));
#112=IFCAXIS2PLACEMENT3D(#111,$,$);
#113=IFCLOCALPLACEMENT(#28,#112);
#114=IFCCARTESIANPOINT((580.,0.));
#115=IFCPOLYLINE((#48,#114));
#116=IFCSHAPEREPRESENTATION(#14,'Axis','Curve2D',(#115));
#117=IFCPRODUCTDEFINITIONSHAPE($,$,(#116,#125));
#118=IFCCARTESIANPOINT((290.,-2.4868995751603507E-14));
#119=IFCDIRECTION((1.,0.));
#120=IFCAXIS2PLACEMENT2D(#118,#119);
#121=IFCRECTANGLEPROFILEDEF(.AREA.,$,#120,580.,20.);
#122=IFCAXIS2PLACEMENT3D(#10,$,$);
#123=IFCEXTRUDEDAREASOLID(#121,#122,#44,350.00000000008754);
#124=IFCSTYLEDITEM(#123,(#61),$);
#125=IFCSHAPEREPRESENTATION(#15,'Body','SweptSolid',(#123));
#126=IFCWALL('2DjbV_x2j23BsxEmD5wnTL',#6,'Basic Wall:Wall 20 thick:215595',$,$,#113,#117,'215595',.NOTDEFINED.);
#127=IFCQUANTITYLENGTH('Height',$,$,350.00000000008754,$);
#128=IFCQUANTITYLENGTH('Length',$,$,580.,$);
#129=IFCQUANTITYLENGTH('Width',$,$,20.,$);
#130=IFCQUANTITYAREA('GrossFootprintArea',$,$,1.1600000000000001,$);
#131=IFCQUANTITYVOLUME('GrossVolume',$,$,3.669478000001015,$);
#132=IFCQUANTITYAREA('GrossSideArea',$,$,18.347390000005074,$);
#133=IFCQUANTITYAREA('NetSideArea',$,$,14.998490000005088,$);
#134=IFCQUANTITYVOLUME('NetVolume',$,$,2.9996980000010178,$);
#135=IFCELEMENTQUANTITY('2gVMbB80ZrLE78ZuAY9YmC',#6,'Qto_WallBaseQuantities',$,$,(#127,#128,#129,#130,#131,#132,#133,#134));
#136=IFCRELDEFINESBYPROPERTIES('0bda17ribWaXTY$H7iAHAJ',#6,$,$,(#126),#135);
#137=IFCPROPERTYSET('1UMc9K2fswMvgUK53_HAQl',#6,'Pset_EnvironmentalImpactIndicators',$,(#87));
#138=IFCPROPERTYSINGLEVALUE('Reference',$,IFCLABEL('Wall 20 thick'),$);
#139=IFCPROPERTYSET('3HuekS6ANCDwzlsSd6folw',#6,'Pset_ReinforcementBarPitchOfWall',$,(#138));
#140=IFCPROPERTYSET('1CJwS5TjXUoSfUvo4_Ev$z',#6,'Pset_WallCommon',$,(#87,#91,#92,#93));
#141=IFCRELDEFINESBYPROPERTIES('0uy7jS67FNhO0Y5ipd0YXf',#6,$,$,(#126),#137);
#142=IFCRELDEFINESBYPROPERTIES('3QKnDPAeuiBdgJ45Qqpod4',#6,$,$,(#126),#139);
#143=IFCRELDEFINESBYPROPERTIES('0i3B0_KWj2m9tJckszHV60',#6,$,$,(#126),#140);
#144=IFCQUANTITYAREA('NetSurfaceArea','',$,37.132580000010527,$);
#145=IFCQUANTITYVOLUME('NetVolume','',$,2.9996980000010174,$);
#146=IFCELEMENTQUANTITY('0nKxEF6AUi53DXotFnyObq',#6,'Qto_BodyGeometryValidation',$,$,(#144,#145));
#147=IFCRELDEFINESBYPROPERTIES('0h7Ue1zZFRarXIq5fEc10j',#6,$,$,(#126),#146);
#148=IFCCARTESIANPOINT((-835.23272419553564,-253.36592453385683,-0.));
#149=IFCDIRECTION((0.,1.,0.));
#150=IFCAXIS2PLACEMENT3D(#148,#44,#149);
#151=IFCLOCALPLACEMENT(#28,#150);
#152=IFCCARTESIANPOINT((280.,-0.));
#153=IFCPOLYLINE((#48,#152));
#154=IFCSHAPEREPRESENTATION(#14,'Axis','Curve2D',(#153));
#155=IFCPRODUCTDEFINITIONSHAPE($,$,(#154,#162));
#156=IFCCARTESIANPOINT((140.0000000000002,-1.4210854715202004E-14));
#157=IFCAXIS2PLACEMENT2D(#156,#119);
#158=IFCRECTANGLEPROFILEDEF(.AREA.,$,#157,280.00000000000028,20.);
#159=IFCAXIS2PLACEMENT3D(#10,$,$);
#160=IFCEXTRUDEDAREASOLID(#158,#159,#44,350.00000000008754);
#161=IFCSTYLEDITEM(#160,(#61),$);
#162=IFCSHAPEREPRESENTATION(#15,'Body','SweptSolid',(#160));
#163=IFCWALL('2DjbV_x2j23BsxEmD5wnSo',#6,'Basic Wall:Wall 20 thick:215628',$,$,#151,#155,'215628',.NOTDEFINED.);
#164=IFCQUANTITYLENGTH('Height',$,$,350.00000000008754,$);
#165=IFCQUANTITYLENGTH('Length',$,$,280.0000000000004,$);
#166=IFCQUANTITYLENGTH('Width',$,$,20.,$);
#167=IFCQUANTITYAREA('GrossFootprintArea',$,$,0.56000000000000083,$);
#168=IFCQUANTITYVOLUME('GrossVolume',$,$,1.5694780000004931,$);
#169=IFCQUANTITYAREA('GrossSideArea',$,$,7.8473900000024646,$);
#170=IFCQUANTITYAREA('NetSideArea',$,$,7.8473900000024646,$);
#171=IFCQUANTITYVOLUME('NetVolume',$,$,1.5694780000004933,$);
#172=IFCELEMENTQUANTITY('2gfiHx_5Vtrze1mKORm8NX',#6,'Qto_WallBaseQuantities',$,$,(#164,#165,#166,#167,#168,#169,#170,#171));
#173=IFCRELDEFINESBYPROPERTIES('33E4$6L0H5c6Yoc1vvOr1J',#6,$,$,(#163),#172);
#174=IFCPROPERTYSET('3g7_HwW1kyUyo9TJZc5prU',#6,'Pset_EnvironmentalImpactIndicators',$,(#87));
#175=IFCPROPERTYSINGLEVALUE('Reference',$,IFCLABEL('Wall 20 thick'),$);
#176=IFCPROPERTYSET('1HmVPqfPxMlKMLZcqpLaK1',#6,'Pset_ReinforcementBarPitchOfWall',$,(#175));
#177=IFCPROPERTYSET('3fUtnbt4c90_eNURBj3HwN',#6,'Pset_WallCommon',$,(#87,#91,#92,#93));
#178=IFCRELDEFINESBYPROPERTIES('1WVNFXvGp5qXVPNsEFlnoo',#6,$,$,(#163),#174);
#179=IFCRELDEFINESBYPROPERTIES('2WYC3kkPQaFNEAjv9GCnKX',#6,$,$,(#163),#176);
#180=IFCRELDEFINESBYPROPERTIES('2xnQW2$oeK_k_zbYkRn_wS',#6,$,$,(#163),#177);
#181=IFCQUANTITYAREA('NetSurfaceArea','',$,19.068380000005277,$);
#182=IFCQUANTITYVOLUME('NetVolume','',$,1.5694780000004933,$);
#183=IFCELEMENTQUANTITY('2Q95sg1wP0rpsvqXWjF8qd',#6,'Qto_BodyGeometryValidation',$,$,(#181,#182));
#184=IFCRELDEFINESBYPROPERTIES('0W75GA4dAzHiNKb0chsGo6',#6,$,$,(#163),#183);
#185=IFCCARTESIANPOINT((-545.23272419553518,36.634075466142576,-0.));
#186=IFCDIRECTION((-1.,0.,0.));
#187=IFCAXIS2PLACEMENT3D(#185,#44,#186);
#188=IFCLOCALPLACEMENT(#28,#187);
#189=IFCCARTESIANPOINT((580.,0.));
#190=IFCPOLYLINE((#48,#189));
#191=IFCSHAPEREPRESENTATION(#14,'Axis','Curve2D',(#190));
#192=IFCPRODUCTDEFINITIONSHAPE($,$,(#191,#199));
#193=IFCCARTESIANPOINT((290.,3.5527136788005009E-15));
#194=IFCAXIS2PLACEMENT2D(#193,#119);
#195=IFCRECTANGLEPROFILEDEF(.AREA.,$,#194,580.,20.000000000000004);
#196=IFCAXIS2PLACEMENT3D(#10,$,$);
#197=IFCEXTRUDEDAREASOLID(#195,#196,#44,350.00000000008754);
#198=IFCSTYLEDITEM(#197,(#61),$);
#199=IFCSHAPEREPRESENTATION(#15,'Body','SweptSolid',(#197));
#200=IFCWALL('2DjbV_x2j23BsxEmD5wnSH',#6,'Basic Wall:Wall 20 thick:215663',$,$,#188,#192,'215663',.NOTDEFINED.);
#201=IFCQUANTITYLENGTH('Height',$,$,350.00000000008754,$);
#202=IFCQUANTITYLENGTH('Length',$,$,580.00000000000011,$);
#203=IFCQUANTITYLENGTH('Width',$,$,20.,$);
#204=IFCQUANTITYAREA('GrossFootprintArea',$,$,1.1600000000000001,$);
#205=IFCQUANTITYVOLUME('GrossVolume',$,$,3.6694780000010159,$);
#206=IFCQUANTITYAREA('GrossSideArea',$,$,18.347390000005078,$);
#207=IFCQUANTITYAREA('NetSideArea',$,$,18.347390000005081,$);
#208=IFCQUANTITYVOLUME('NetVolume',$,$,3.6694780000010168,$);
#209=IFCELEMENTQUANTITY('10L4voB2AvYCo8ca6o7WsB',#6,'Qto_WallBaseQuantities',$,$,(#201,#202,#203,#204,#205,#206,#207,#208));
#210=IFCRELDEFINESBYPROPERTIES('3tJnkMHc5OyTs1EcAhbYif',#6,$,$,(#200),#209);
#211=IFCPROPERTYSET('0655zSRwI5zvkKU_Jk4qA7',#6,'Pset_EnvironmentalImpactIndicators',$,(#87));
#212=IFCPROPERTYSINGLEVALUE('Reference',$,IFCLABEL('Wall 20 thick'),$);
#213=IFCPROPERTYSET('07YE5VYNtsU856Ns0XDDx_',#6,'Pset_ReinforcementBarPitchOfWall',$,(#212));
#214=IFCPROPERTYSET('0DsOdJ0Lny1xfAqGnuX93c',#6,'Pset_WallCommon',$,(#87,#91,#92,#93));
#215=IFCRELDEFINESBYPROPERTIES('2yQKEGFmpKxwuzYAm0ypTZ',#6,$,$,(#200),#211);
#216=IFCRELDEFINESBYPROPERTIES('3mjBf_ZOcyBrPxE_SiybLc',#6,$,$,(#200),#213);
#217=IFCRELDEFINESBYPROPERTIES('33HfIV_Pdsuxeoy$K0aCJs',#6,$,$,(#200),#214);
#218=IFCQUANTITYAREA('NetSurfaceArea','',$,41.268380000010517,$);
#219=IFCQUANTITYVOLUME('NetVolume','',$,3.6694780000010168,$);
#220=IFCELEMENTQUANTITY('0siCY5MYj4VqqjZskjizq8',#6,'Qto_BodyGeometryValidation',$,$,(#218,#219));
#221=IFCRELDEFINESBYPROPERTIES('1vRMuydtHkVRa1q2r6hYsA',#6,$,$,(#200),#220);
#222=IFCCARTESIANPOINT((-535.23272419553473,326.63407546614269,-0.));
#223=IFCAXIS2PLACEMENT3D(#222,#44,#45);
#224=IFCLOCALPLACEMENT(#28,#223);
#225=IFCCARTESIANPOINT((600.,0.));
#226=IFCPOLYLINE((#48,#225));
#227=IFCSHAPEREPRESENTATION(#14,'Axis','Curve2D',(#226));
#228=IFCPRODUCTDEFINITIONSHAPE($,$,(#227,#235));
#229=IFCCARTESIANPOINT((300.00000000000017,0.));
#230=IFCAXIS2PLACEMENT2D(#229,#54);
#231=IFCRECTANGLEPROFILEDEF(.AREA.,$,#230,600.00000000000034,20.);
#232=IFCAXIS2PLACEMENT3D(#10,$,$);
#233=IFCEXTRUDEDAREASOLID(#231,#232,#44,350.00000000008754);
#234=IFCSTYLEDITEM(#233,(#61),$);
#235=IFCSHAPEREPRESENTATION(#15,'Body','SweptSolid',(#233));
#236=IFCWALL('2DjbV_x2j23BsxEmD5wnV4',#1275,'Basic Wall:Wall 20 thick:215738',$,$,#224,#228,'215738',$);
#237=IFCQUANTITYLENGTH('Height',$,$,350.00000000008754,$);
#238=IFCQUANTITYLENGTH('Length',$,$,600.00000000000034,$);
#239=IFCQUANTITYLENGTH('Width',$,$,20.,$);
#240=IFCQUANTITYAREA('GrossFootprintArea',$,$,1.2000000000000008,$);
#241=IFCQUANTITYVOLUME('GrossVolume',$,$,4.2000000000010527,$);
#242=IFCQUANTITYAREA('GrossSideArea',$,$,21.000000000005262,$);
#243=IFCQUANTITYAREA('NetSideArea',$,$,18.767400000005264,$);
#244=IFCQUANTITYVOLUME('NetVolume',$,$,3.753480000001054,$);
#245=IFCELEMENTQUANTITY('05HoDcuZ$Pgn8rD1tbtU1x',#6,'Qto_WallBaseQuantities',$,$,(#237,#238,#239,#240,#241,#242,#243,#244));
#246=IFCRELDEFINESBYPROPERTIES('2KZBoiX3Yz9veQWjNl0mPy',#6,$,$,(#236),#245);
#247=IFCPROPERTYSET('33c_85rw89itbY5XsS5Oot',#6,'Pset_EnvironmentalImpactIndicators',$,(#87));
#248=IFCPROPERTYSINGLEVALUE('Reference',$,IFCLABEL('Wall 20 thick'),$);
#249=IFCPROPERTYSET('0C6dBYg5Q9A$XDVgZ_t7eh',#6,'Pset_ReinforcementBarPitchOfWall',$,(#248));
#250=IFCPROPERTYSET('2pNDC0oKTaYwweDdsYb7Aw',#6,'Pset_WallCommon',$,(#87,#91,#92,#93));
#251=IFCRELDEFINESBYPROPERTIES('0hk1MZIGi4jYel4YbWrOZv',#6,$,$,(#236),#247);
#252=IFCRELDEFINESBYPROPERTIES('0TqSjtEQjRoS1l68FJK4BO',#6,$,$,(#236),#249);
#253=IFCRELDEFINESBYPROPERTIES('3ZsgSZVRyvTdzHaafoPdbd',#6,$,$,(#236),#250);
#254=IFCQUANTITYAREA('NetSurfaceArea','',$,43.042800000010878,$);
#255=IFCQUANTITYVOLUME('NetVolume','',$,3.753480000001054,$);
#256=IFCELEMENTQUANTITY('3Phffc7yR5H1oKZmprpcf5',#6,'Qto_BodyGeometryValidation',$,$,(#254,#255));
#257=IFCRELDEFINESBYPROPERTIES('11waS58CAqN1cG8JOG1VP$',#6,$,$,(#236),#256);
#258=IFCCARTESIANPOINT((-1125.2327241955347,336.63407546614457,-0.));
#259=IFCAXIS2PLACEMENT3D(#258,$,$);
#260=IFCLOCALPLACEMENT(#28,#259);
#261=IFCCARTESIANPOINT((600.,0.));
#262=IFCPOLYLINE((#48,#261));
#263=IFCSHAPEREPRESENTATION(#14,'Axis','Curve2D',(#262));
#264=IFCPRODUCTDEFINITIONSHAPE($,$,(#263,#271));
#265=IFCCARTESIANPOINT((300.,0.));
#266=IFCAXIS2PLACEMENT2D(#265,#54);
#267=IFCRECTANGLEPROFILEDEF(.AREA.,$,#266,600.,20.);
#268=IFCAXIS2PLACEMENT3D(#10,$,$);
#269=IFCEXTRUDEDAREASOLID(#267,#268,#44,350.00000000008754);
#270=IFCSTYLEDITEM(#269,(#61),$);
#271=IFCSHAPEREPRESENTATION(#15,'Body','SweptSolid',(#269));
#272=IFCWALL('2DjbV_x2j23BsxEmD5wnPo',#6,'Basic Wall:Wall 20 thick:215820',$,$,#260,#264,'215820',.NOTDEFINED.);
#273=IFCQUANTITYLENGTH('Height',$,$,350.00000000008754,$);
#274=IFCQUANTITYLENGTH('Length',$,$,600.,$);
#275=IFCQUANTITYLENGTH('Width',$,$,20.,$);
#276=IFCQUANTITYAREA('GrossFootprintArea',$,$,1.2000000000000002,$);
#277=IFCQUANTITYVOLUME('GrossVolume',$,$,3.8094780000010506,$);
#278=IFCQUANTITYAREA('GrossSideArea',$,$,19.047390000005251,$);
#279=IFCQUANTITYAREA('NetSideArea',$,$,19.047390000005255,$);
#280=IFCQUANTITYVOLUME('NetVolume',$,$,3.8094780000010506,$);
#281=IFCELEMENTQUANTITY('1Ybu5iyxtlrd76yk6ftgS2',#6,'Qto_WallBaseQuantities',$,$,(#273,#274,#275,#276,#277,#278,#279,#280));
#282=IFCRELDEFINESBYPROPERTIES('1$PjehL9TDfOm0ZiZkMO6T',#6,$,$,(#272),#281);
#283=IFCPROPERTYSET('0rqePbthmdQDhAT75MnnTx',#6,'Pset_EnvironmentalImpactIndicators',$,(#87));
#284=IFCPROPERTYSINGLEVALUE('Reference',$,IFCLABEL('Wall 20 thick'),$);
#285=IFCPROPERTYSET('2rYZ4XKY0CDsHRnSrOhAvU',#6,'Pset_ReinforcementBarPitchOfWall',$,(#284));
#286=IFCPROPERTYSET('3cYTUf3m21Aou3wk576REm',#6,'Pset_WallCommon',$,(#87,#91,#92,#93));
#287=IFCRELDEFINESBYPROPERTIES('1HTcmoi3usnoeE5NrLWclk',#6,$,$,(#272),#283);
#288=IFCRELDEFINESBYPROPERTIES('3$WvAMcag19BhP0dBhMTee',#6,$,$,(#272),#285);
#289=IFCRELDEFINESBYPROPERTIES('2Nsh8MSzER7o00kuymE_xZ',#6,$,$,(#272),#286);
#290=IFCQUANTITYAREA('NetSurfaceArea','',$,42.748380000010854,$);
#291=IFCQUANTITYVOLUME('NetVolume','',$,3.8094780000010506,$);
#292=IFCELEMENTQUANTITY('2LQEmef1dR5fv5TCuK2jHK',#6,'Qto_BodyGeometryValidation',$,$,(#290,#291));
#293=IFCRELDEFINESBYPROPERTIES('1ARSiPGcX_a9EHfmBeCCkF',#6,$,$,(#272),#292);
#294=IFCCARTESIANPOINT((-53.349999999999994,-112.39999999999986));
#295=IFCCARTESIANPOINT((53.34999999999998,-112.39999999999986));
#296=IFCCARTESIANPOINT((53.34999999999998,108.60000000000002));
#297=IFCCARTESIANPOINT((45.749999999999972,108.60000000000002));
#298=IFCCARTESIANPOINT((45.749999999999972,-104.80000000000018));
#299=IFCCARTESIANPOINT((-45.749999999999957,-104.80000000000018));
#300=IFCCARTESIANPOINT((-45.749999999999957,108.60000000000002));
#301=IFCCARTESIANPOINT((-53.349999999999994,108.60000000000002));
#302=IFCPOLYLINE((#294,#295,#296,#297,#298,#299,#300,#301,#294));
#303=IFCARBITRARYCLOSEDPROFILEDEF(.AREA.,'0915 x 2134mm',#302);
#304=IFCCARTESIANPOINT((45.750000000000057,20.,108.60000000000002));
#305=IFCDIRECTION((1.,0.,0.));
#306=IFCAXIS2PLACEMENT3D(#304,#149,#305);
#307=IFCEXTRUDEDAREASOLID(#303,#306,#44,2.4999999999994453);
#308=IFCSIUNIT(*,.PLANEANGLEUNIT.,$,.RADIAN.);
#309=IFCDIMENSIONALEXPONENTS(0,0,0,0,0,0,0);
#310=IFCMEASUREWITHUNIT(IFCPLANEANGLEMEASURE(0.017453292519943278),#308);
#311=IFCCONVERSIONBASEDUNIT(#309,.PLANEANGLEUNIT.,'DEGREE',#310);
#312=IFCCARTESIANPOINT((-112.39999999999995,-53.349999999999724));
#313=IFCCARTESIANPOINT((108.59999999999994,-53.349999999999724));
#314=IFCCARTESIANPOINT((108.59999999999994,-45.750000000000718));
#315=IFCCARTESIANPOINT((-104.79999999999997,-45.750000000000718));
#316=IFCCARTESIANPOINT((-104.79999999999997,45.750000000000192));
#317=IFCCARTESIANPOINT((108.59999999999994,45.750000000000192));
#318=IFCCARTESIANPOINT((108.59999999999994,53.35000000000025));
#319=IFCCARTESIANPOINT((-112.39999999999995,53.35000000000025));
#320=IFCPOLYLINE((#312,#313,#314,#315,#316,#317,#318,#319,#312));
#321=IFCARBITRARYCLOSEDPROFILEDEF(.AREA.,'0915 x 2134mm',#320);
#322=IFCCARTESIANPOINT((45.75000000000032,-2.5000000000004738,108.59999999999994));
#323=IFCDIRECTION((0.,0.,-1.));
#324=IFCAXIS2PLACEMENT3D(#322,#149,#323);
#325=IFCEXTRUDEDAREASOLID(#321,#324,#44,2.5000000000005569);
#326=IFCCARTESIANPOINT((-4.4408920985006262E-16,0.));
#327=IFCAXIS2PLACEMENT2D(#326,#119);
#328=IFCRECTANGLEPROFILEDEF(.AREA.,'0915 x 2134mm',#327,5.1000000000000005,91.499999999999972);
#329=IFCCARTESIANPOINT((45.750000000000036,17.450000000000088,0.));
#330=IFCAXIS2PLACEMENT3D(#329,#44,#149);
#331=IFCEXTRUDEDAREASOLID(#328,#330,#44,213.39999999999992);
#332=IFCCOLOURRGB($,0.59999999999999998,0.29803921568627451,0.16862745098039217);
#333=IFCSURFACESTYLERENDERING(#332,0.,$,$,$,$,IFCNORMALISEDRATIOMEASURE(0.5),IFCSPECULAREXPONENT(128.),.NOTDEFINED.);
#334=IFCSURFACESTYLE('Door - Frame',.BOTH.,(#333));
#335=IFCSTYLEDITEM(#307,(#334),$);
#336=IFCSTYLEDITEM(#325,(#334),$);
#337=IFCCOLOURRGB($,0.44705882352941179,0.32156862745098042,0.20000000000000001);
#338=IFCSURFACESTYLERENDERING(#337,0.,$,$,$,$,IFCNORMALISEDRATIOMEASURE(0.5),IFCSPECULAREXPONENT(128.),.NOTDEFINED.);
#339=IFCSURFACESTYLE('Door - Panel',.BOTH.,(#338));
#340=IFCSTYLEDITEM(#331,(#339),$);
#341=IFCSHAPEREPRESENTATION(#15,'Body','SweptSolid',(#307,#325,#331));
#342=IFCAXIS2PLACEMENT3D(#10,$,$);
#343=IFCREPRESENTATIONMAP(#342,#341);
#344=IFCDOORLININGPROPERTIES('2DjbV_x2j23BsxEm95wn1P',#6,'M_Single-Flush:0915 x 2134mm:216359',$,$,$,$,$,$,$,$,$,$,$,$,$,$);
#345=IFCDOORPANELPROPERTIES('2DjbV_x2j23BsxEm55wn1P',#6,'M_Single-Flush:0915 x 2134mm:216359:1',$,$,.SWINGING.,$,.NOTDEFINED.,$);
#346=IFCDOORTYPE('2NSyFL5WiJuiyIiouVR_e3',#6,'M_Single-Flush:0915 x 2134mm',$,$,(#344,#345),(#343),'53070',$,.DOOR.,.SINGLE_SWING_RIGHT.,.F.,$);
#347=IFCMATERIAL('Door - Frame',$,'Miscellaneous');
#348=IFCSTYLEDITEM($,(#334),$);
#349=IFCSTYLEDREPRESENTATION(#13,'Style','Material',(#348));
#350=IFCMATERIALDEFINITIONREPRESENTATION($,$,(#349),#347);
#351=IFCMATERIAL('Door - Panel',$,'Wood');
#352=IFCSTYLEDITEM($,(#339),$);
#353=IFCSTYLEDREPRESENTATION(#13,'Style','Material',(#352));
#354=IFCMATERIALDEFINITIONREPRESENTATION($,$,(#353),#351);
#355=IFCMATERIALCONSTITUENT('Frame/Mullion',$,#347,0.16914448499953574,'Miscellaneous');
#356=IFCSHAPEREPRESENTATION(#15,'Body','SweptSolid',(#307,#325));
#357=IFCSHAPEASPECT((#356),'Frame/Mullion',$,.U.,#343);
#358=IFCMATERIALCONSTITUENT('Panel',$,#351,0.83085551500046428,'Wood');
#359=IFCSHAPEREPRESENTATION(#15,'Body','SweptSolid',(#331));
#360=IFCSHAPEASPECT((#359),'Panel',$,.U.,#343);
#361=IFCMATERIALCONSTITUENTSET($,$,(#355,#358));
#362=IFCCARTESIANTRANSFORMATIONOPERATOR3D($,$,#10,1.,$);
#363=IFCMAPPEDITEM(#343,#362);
#364=IFCSHAPEREPRESENTATION(#15,'Body','MappedRepresentation',(#363));
#365=IFCPRODUCTDEFINITIONSHAPE($,$,(#364));
#366=IFCCARTESIANPOINT((-1029.4827241955354,-253.36592453385623,0.));
#367=IFCAXIS2PLACEMENT3D(#366,#44,#186);
#369=IFCDOOR('2DjbV_x2j23BsxEmD5wn1P',#6,'M_Single-Flush:0915 x 2134mm:216359',$,$,#1096,#365,'216359',213.39999999999998,91.499999999999986,.DOOR.,$,$);
#370=IFCMATERIALCONSTITUENT('Door - Frame',$,#347,0.16914448499955104,'Miscellaneous');
#371=IFCMATERIALCONSTITUENT('Door - Panel',$,#351,0.83085551500044885,'Wood');
#372=IFCMATERIALCONSTITUENTSET($,$,(#370,#371));
#373=IFCPROPERTYSINGLEVALUE('Reference',$,IFCIDENTIFIER('0915 x 2134mm'),$);
#374=IFCPROPERTYSET('1ccHQcpdqQxt_wfnQ7cnBt',#6,'Pset_DoorCommon',$,(#39,#373));
#375=IFCPROPERTYSET('0SJh_rD8oeZpXnXbqVa9Nl',#6,'Pset_EnvironmentalImpactIndicators',$,(#373));
#376=IFCRELDEFINESBYPROPERTIES('1wi4OjAbHCTskkmGwHxjaG',#6,$,$,(#369),#374);
#377=IFCRELDEFINESBYPROPERTIES('0sIDmyRqZVCu33aI2$UIYm',#6,$,$,(#369),#375);
#378=IFCQUANTITYAREA('GrossSurfaceArea','',$,4.2162179999999978,$);
#379=IFCQUANTITYAREA('NetSurfaceArea','',$,6.3791579999999533,$);
#380=IFCQUANTITYVOLUME('GrossVolume','',$,0.099583109999999961,$);
#381=IFCQUANTITYVOLUME('NetVolume','',$,0.11985610999999921,$);
#382=IFCELEMENTQUANTITY('3LoS6$Wzne3joxH7dgFajl',#6,'Qto_BodyGeometryValidation',$,$,(#378,#379,#380,#381));
#383=IFCRELDEFINESBYPROPERTIES('37J6XBY0z$SgY3D1XPvsR1',#6,$,$,(#369),#382);
#384=IFCQUANTITYLENGTH('Width','',$,91.5,$);
#385=IFCQUANTITYLENGTH('Height','',$,213.40000000000001,$);
#386=IFCQUANTITYLENGTH('Perimeter','',$,193.19999999999996,$);
#387=IFCQUANTITYAREA('Area','',$,1.95261,$);
#388=IFCELEMENTQUANTITY('1FcBbGbzBcabtq7W510s6_',#6,'Qto_DoorBaseQuantities',$,$,(#384,#385,#386,#387));
#389=IFCRELDEFINESBYPROPERTIES('0c_qQayyelkP4XdhYJc2t7',#6,$,$,(#369),#388);
#390=IFCMAPPEDITEM(#343,#362);
#391=IFCSHAPEREPRESENTATION(#15,'Body','MappedRepresentation',(#390));
#392=IFCPRODUCTDEFINITIONSHAPE($,$,(#391));
#393=IFCCARTESIANPOINT((-930.98272419553484,26.634075466143738,0.));
#394=IFCAXIS2PLACEMENT3D(#393,$,$);
#396=IFCDOOR('2DjbV_x2j23BsxEmD5wn2Y',#6,'M_Single-Flush:0915 x 2134mm:216540',$,$,#1196,#392,'216540',213.39999999999998,91.499999999999986,.DOOR.,$,$);
#397=IFCMATERIALCONSTITUENT('Door - Frame',$,#347,0.16914448499955104,'Miscellaneous');
#398=IFCMATERIALCONSTITUENT('Door - Panel',$,#351,0.83085551500044885,'Wood');
#399=IFCMATERIALCONSTITUENTSET($,$,(#397,#398));
#400=IFCPROPERTYSET('1sptT$SwUB1NEKft1KTRdI',#6,'Pset_DoorCommon',$,(#39,#373));
#401=IFCPROPERTYSET('1TAWNU0F_A9H3hhRUqIXuD',#6,'Pset_EnvironmentalImpactIndicators',$,(#373));
#402=IFCRELDEFINESBYPROPERTIES('0qAJl5GkyNGcMQLHoJiP9P',#6,$,$,(#396),#400);
#403=IFCRELDEFINESBYPROPERTIES('28IPaGfbLVr0fARNrL1WfW',#6,$,$,(#396),#401);
#404=IFCQUANTITYAREA('GrossSurfaceArea','',$,4.2162179999999978,$);
#405=IFCQUANTITYAREA('NetSurfaceArea','',$,6.3791579999999533,$);
#406=IFCQUANTITYVOLUME('GrossVolume','',$,0.099583109999999961,$);
#407=IFCQUANTITYVOLUME('NetVolume','',$,0.11985610999999941,$);
#408=IFCELEMENTQUANTITY('0Po0FLynGTMJ3ABDkSyNkW',#6,'Qto_BodyGeometryValidation',$,$,(#404,#405,#406,#407));
#409=IFCRELDEFINESBYPROPERTIES('0dDPVaarYL9NL6_XPAmq5V',#6,$,$,(#396),#408);
#410=IFCQUANTITYLENGTH('Width','',$,91.5,$);
#411=IFCQUANTITYLENGTH('Height','',$,213.40000000000001,$);
#412=IFCQUANTITYLENGTH('Perimeter','',$,193.19999999999996,$);
#413=IFCQUANTITYAREA('Area','',$,1.95261,$);
#414=IFCELEMENTQUANTITY('032Wo$0QwGeLPrAuF3Hie4',#6,'Qto_DoorBaseQuantities',$,$,(#410,#411,#412,#413));
#415=IFCRELDEFINESBYPROPERTIES('1p3Ks$1lmfzohtLuVmd1fN',#6,$,$,(#396),#414);
#416=IFCMAPPEDITEM(#343,#362);
#417=IFCSHAPEREPRESENTATION(#15,'Body','MappedRepresentation',(#416));
#418=IFCPRODUCTDEFINITIONSHAPE($,$,(#417));
#419=IFCCARTESIANPOINT((-845.23272419553518,22.384075466143937,0.));
#420=IFCAXIS2PLACEMENT3D(#419,#44,#45);
#422=IFCDOOR('2DjbV_x2j23BsxEmD5wnDl',#6,'M_Single-Flush:0915 x 2134mm:216593',$,$,#1176,#418,'216593',213.39999999999998,91.5,.DOOR.,$,$);
#423=IFCMATERIALCONSTITUENT('Door - Frame',$,#347,0.16914448499955104,'Miscellaneous');
#424=IFCMATERIALCONSTITUENT('Door - Panel',$,#351,0.83085551500044885,'Wood');
#425=IFCMATERIALCONSTITUENTSET($,$,(#423,#424));
#426=IFCPROPERTYSET('08$2ke6KcP_7vn1v5DIr8J',#6,'Pset_DoorCommon',$,(#39,#373));
#427=IFCPROPERTYSET('28eyHoKDd4fnmhOZkK$vvI',#6,'Pset_EnvironmentalImpactIndicators',$,(#373));
#428=IFCRELDEFINESBYPROPERTIES('2ID_1VyaZlJA8NHdpHWDAe',#6,$,$,(#422),#426);
#429=IFCRELDEFINESBYPROPERTIES('0wFQTe7DTu8IvDPSRyBVEX',#6,$,$,(#422),#427);
#430=IFCQUANTITYAREA('GrossSurfaceArea','',$,4.2162179999999978,$);
#431=IFCQUANTITYAREA('NetSurfaceArea','',$,6.3791579999999533,$);
#432=IFCQUANTITYVOLUME('GrossVolume','',$,0.099583109999999961,$);
#433=IFCQUANTITYVOLUME('NetVolume','',$,0.11985610999999911,$);
#434=IFCELEMENTQUANTITY('1FezppB1SkJA42Zo0s8V$O',#6,'Qto_BodyGeometryValidation',$,$,(#430,#431,#432,#433));
#435=IFCRELDEFINESBYPROPERTIES('0_ULyqhxRWBk8oSksuEYeh',#6,$,$,(#422),#434);
#436=IFCQUANTITYLENGTH('Width','',$,91.5,$);
#437=IFCQUANTITYLENGTH('Height','',$,213.40000000000001,$);
#438=IFCQUANTITYLENGTH('Perimeter','',$,193.19999999999996,$);
#439=IFCQUANTITYAREA('Area','',$,1.95261,$);
#440=IFCELEMENTQUANTITY('0YoZASSwO0U1rzyKGbJGLL',#6,'Qto_DoorBaseQuantities',$,$,(#436,#437,#438,#439));
#441=IFCRELDEFINESBYPROPERTIES('2rteDWF6Ia$yeIh9lzCzqX',#6,$,$,(#422),#440);
#442=IFCMAPPEDITEM(#343,#362);
#443=IFCSHAPEREPRESENTATION(#15,'Body','MappedRepresentation',(#442));
#444=IFCPRODUCTDEFINITIONSHAPE($,$,(#443));
#445=IFCCARTESIANPOINT((-640.98272419553439,326.63407546614292,0.));
#446=IFCAXIS2PLACEMENT3D(#445,$,$);
#448=IFCDOOR('2DjbV_x2j23BsxEmD5wnDO',#6,'M_Single-Flush:0915 x 2134mm:216614',$,$,#1256,#444,'216614',213.39999999999998,91.499999999999986,.DOOR.,$,$);
#449=IFCMATERIALCONSTITUENT('Door - Frame',$,#347,0.16914448499955104,'Miscellaneous');
#450=IFCMATERIALCONSTITUENT('Door - Panel',$,#351,0.83085551500044885,'Wood');
#451=IFCMATERIALCONSTITUENTSET($,$,(#449,#450));
#452=IFCPROPERTYSET('1fyQYunrJTo8GY$IJRS5wy',#6,'Pset_DoorCommon',$,(#39,#373));
#453=IFCPROPERTYSET('0PYNl5SvUUojrlXJbiyX9R',#6,'Pset_EnvironmentalImpactIndicators',$,(#373));
#454=IFCRELDEFINESBYPROPERTIES('2T297HFSXICXFIDDh89G9Z',#6,$,$,(#448),#452);
#455=IFCRELDEFINESBYPROPERTIES('3BB$RlG4LU7gbKjhJ42HKv',#6,$,$,(#448),#453);
#456=IFCQUANTITYAREA('GrossSurfaceArea','',$,4.2162179999999978,$);
#457=IFCQUANTITYAREA('NetSurfaceArea','',$,6.3791579999999533,$);
#458=IFCQUANTITYVOLUME('GrossVolume','',$,0.099583109999999961,$);
#459=IFCQUANTITYVOLUME('NetVolume','',$,0.11985610999999927,$);
#460=IFCELEMENTQUANTITY('32IixwtQaKUDb5g7cQCz$k',#6,'Qto_BodyGeometryValidation',$,$,(#456,#457,#458,#459));
#461=IFCRELDEFINESBYPROPERTIES('12hzWMAxmsr_SSAKeOoOXy',#6,$,$,(#448),#460);
#462=IFCQUANTITYLENGTH('Width','',$,91.5,$);
#463=IFCQUANTITYLENGTH('Height','',$,213.40000000000001,$);
#464=IFCQUANTITYLENGTH('Perimeter','',$,193.19999999999996,$);
#465=IFCQUANTITYAREA('Area','',$,1.95261,$);
#466=IFCELEMENTQUANTITY('3RwCDb28YvFto662t_tQ0s',#6,'Qto_DoorBaseQuantities',$,$,(#462,#463,#464,#465));
#467=IFCRELDEFINESBYPROPERTIES('1jgKigPVxB2R0w7CsnT59a',#6,$,$,(#448),#466);
#468=IFCCARTESIANPOINT((8.3266726846886741E-16,0.));
#469=IFCAXIS2PLACEMENT2D(#468,#119);
#470=IFCRECTANGLEPROFILEDEF(.AREA.,'0915 x 1220mm',#469,1.1999999999999997,78.899999999999707);
#471=IFCCARTESIANPOINT((45.750000000000554,15.899999999999849,6.2999999999985139));
#472=IFCAXIS2PLACEMENT3D(#471,#44,#45);
#473=IFCEXTRUDEDAREASOLID(#470,#472,#44,109.40000000000067);
#474=IFCCARTESIANPOINT((-43.849999999999994,-59.100000000000264));
#475=IFCCARTESIANPOINT((43.849999999999994,-59.100000000000264));
#476=IFCCARTESIANPOINT((43.849999999999994,59.100000000000222));
#477=IFCCARTESIANPOINT((-43.849999999999994,59.100000000000222));
#478=IFCPOLYLINE((#474,#475,#476,#477,#474));
#479=IFCCARTESIANPOINT((-39.449999999999967,-54.700000000000315));
#480=IFCCARTESIANPOINT((-39.449999999999967,54.700000000000358));
#481=IFCCARTESIANPOINT((39.449999999999747,54.700000000000358));
#482=IFCCARTESIANPOINT((39.449999999999747,-54.700000000000315));
#483=IFCPOLYLINE((#479,#480,#481,#482,#479));
#484=IFCARBITRARYPROFILEDEFWITHVOIDS(.AREA.,'0915 x 1220mm',#478,(#483));
#485=IFCCARTESIANPOINT((45.750000000000661,13.699999999997109,61.));
#486=IFCAXIS2PLACEMENT3D(#485,#149,#305);
#487=IFCEXTRUDEDAREASOLID(#484,#486,#44,4.4000000000027439);
#488=IFCCARTESIANPOINT((-45.749999999999979,-61.));
#489=IFCCARTESIANPOINT((45.749999999999979,-61.));
#490=IFCCARTESIANPOINT((45.749999999999979,61.));
#491=IFCCARTESIANPOINT((-45.749999999999979,61.));
#492=IFCPOLYLINE((#488,#489,#490,#491,#488));
#493=IFCCARTESIANPOINT((-43.850000000000115,-59.099999999998204));
#494=IFCCARTESIANPOINT((-43.850000000000115,59.100000000002275));
#495=IFCCARTESIANPOINT((43.849999999999866,59.100000000002275));
#496=IFCCARTESIANPOINT((43.849999999999866,-59.099999999998204));
#497=IFCPOLYLINE((#493,#494,#495,#496,#493));
#498=IFCARBITRARYPROFILEDEFWITHVOIDS(.AREA.,'0915 x 1220mm',#492,(#497));
#499=IFCCARTESIANPOINT((45.750000000000796,13.699999999997109,61.));
#500=IFCAXIS2PLACEMENT3D(#499,#149,#305);
#501=IFCEXTRUDEDAREASOLID(#498,#500,#44,6.3000000000027434);
#502=IFCCARTESIANPOINT((-45.750000000000021,-61.));
#503=IFCCARTESIANPOINT((45.750000000000021,-61.));
#504=IFCCARTESIANPOINT((45.750000000000021,61.));
#505=IFCCARTESIANPOINT((-45.750000000000021,61.));
#506=IFCPOLYLINE((#502,#503,#504,#505,#502));
#507=IFCCARTESIANPOINT((-42.54999999999999,-57.799999999998285));
#508=IFCCARTESIANPOINT((-42.54999999999999,57.800000000002086));
#509=IFCCARTESIANPOINT((42.550000000000018,57.800000000002086));
#510=IFCCARTESIANPOINT((42.550000000000018,-57.799999999998285));
#511=IFCPOLYLINE((#507,#508,#509,#510,#507));
#512=IFCARBITRARYPROFILEDEFWITHVOIDS(.AREA.,'0915 x 1220mm',#506,(#511));
#513=IFCCARTESIANPOINT((45.750000000000838,-0.,61.));
#514=IFCAXIS2PLACEMENT3D(#513,#149,#305);
#515=IFCEXTRUDEDAREASOLID(#512,#514,#44,13.699999999997257);
#516=IFCCOLOURRGB($,0.85490196078431369,0.8901960784313725,0.8784313725490196);
#517=IFCSURFACESTYLERENDERING(#516,0.84999999999999998,$,$,$,$,IFCNORMALISEDRATIOMEASURE(0.5),IFCSPECULAREXPONENT(64.),.NOTDEFINED.);
#518=IFCSURFACESTYLE('Glass',.BOTH.,(#517));
#519=IFCSTYLEDITEM(#473,(#518),$);
#520=IFCCOLOURRGB($,0.53333333333333333,0.38823529411764707,0.21568627450980393);
#521=IFCSURFACESTYLERENDERING(#520,0.,$,$,$,$,IFCNORMALISEDRATIOMEASURE(0.5),IFCSPECULAREXPONENT(128.),.NOTDEFINED.);
#522=IFCSURFACESTYLE('Sash',.BOTH.,(#521));
#523=IFCSTYLEDITEM(#487,(#522),$);
#524=IFCSTYLEDITEM(#501,(#522),$);
#525=IFCSTYLEDITEM(#515,(#522),$);
#526=IFCSHAPEREPRESENTATION(#15,'Body','SweptSolid',(#473,#487,#501,#515));
#527=IFCAXIS2PLACEMENT3D(#10,$,$);
#528=IFCREPRESENTATIONMAP(#527,#526);
#529=IFCWINDOWLININGPROPERTIES('2DjbV_x2j23BsxEm95wnFv',#6,'M_Fixed:0915 x 1220mm:216711',$,$,$,$,$,$,$,$,$,$,$,$,$);
#530=IFCWINDOWTYPE('3KSwFy6PzZAneouM7dTm3J',#6,'M_Fixed:0915 x 1220mm',$,$,(#529),(#528),'53710',$,.WINDOW.,.NOTDEFINED.,.F.,$);
#531=IFCMATERIAL('Glass',$,'Glass');
#532=IFCSTYLEDITEM($,(#518),$);
#533=IFCSTYLEDREPRESENTATION(#13,'Style','Material',(#532));
#534=IFCMATERIALDEFINITIONREPRESENTATION($,$,(#533),#531);
#535=IFCMATERIAL('Sash',$,'Wood');
#536=IFCSTYLEDITEM($,(#522),$);
#537=IFCSTYLEDREPRESENTATION(#13,'Style','Material',(#536));
#538=IFCMATERIALDEFINITIONREPRESENTATION($,$,(#537),#535);
#539=IFCMATERIALCONSTITUENT('Glass',$,#531,0.2516002424186396,'Glass');
#540=IFCSHAPEREPRESENTATION(#15,'Body','SweptSolid',(#473));
#541=IFCSHAPEASPECT((#540),'Glass',$,.U.,#528);
#542=IFCMATERIALCONSTITUENT('Frame/Mullion',$,#535,0.74839975758136035,'Wood');
#543=IFCSHAPEREPRESENTATION(#15,'Body','SweptSolid',(#487,#501,#515));
#544=IFCSHAPEASPECT((#543),'Frame/Mullion',$,.U.,#528);
#545=IFCMATERIALCONSTITUENTSET($,$,(#539,#542));
#546=IFCMAPPEDITEM(#528,#362);
#547=IFCSHAPEREPRESENTATION(#15,'Body','MappedRepresentation',(#546));
#548=IFCPRODUCTDEFINITIONSHAPE($,$,(#547));
#549=IFCCARTESIANPOINT((-1145.2327241955347,292.38407546614451,91.500000000000497));
#550=IFCAXIS2PLACEMENT3D(#549,#44,#45);
#552=IFCWINDOW('2DjbV_x2j23BsxEmD5wnFv',#6,'M_Fixed:0915 x 1220mm:216711',$,$,#1056,#548,'216711',121.99999999999977,91.499999999999929,.WINDOW.,.NOTDEFINED.,$);
#553=IFCMATERIALCONSTITUENT('Glass',$,#531,0.2516002424186396,'Glass');
#554=IFCMATERIALCONSTITUENT('Sash',$,#535,0.74839975758136035,'Wood');
#555=IFCMATERIALCONSTITUENTSET($,$,(#553,#554));
#556=IFCPROPERTYSINGLEVALUE('Reference',$,IFCIDENTIFIER('0915 x 1220mm'),$);
#557=IFCPROPERTYSET('13_pOO1DgEHLs8sUmhImCs',#6,'Pset_EnvironmentalImpactIndicators',$,(#556));
#558=IFCPROPERTYSET('3Ey62fJEfhBCN89BK4k1Ej',#6,'Pset_WindowCommon',$,(#91,#556));
#559=IFCRELDEFINESBYPROPERTIES('1WcZCmzvzrUnblYkrVrRcG',#6,$,$,(#552),#557);
#560=IFCRELDEFINESBYPROPERTIES('3NZdaT0z$VAAw4H0cNFyld',#6,$,$,(#552),#558);
#561=IFCQUANTITYAREA('GrossSurfaceArea','',$,2.817589999999869,$);
#562=IFCQUANTITYAREA('NetSurfaceArea','',$,4.5531280000001884,$);
#563=IFCQUANTITYVOLUME('GrossVolume','',$,0.15293309999996857,$);
#564=IFCQUANTITYVOLUME('NetVolume','',$,0.041168450000001328,$);
#565=IFCELEMENTQUANTITY('00dgxyEI1iShG$SZMpGMSf',#6,'Qto_BodyGeometryValidation',$,$,(#561,#562,#563,#564));
#566=IFCRELDEFINESBYPROPERTIES('0pvh89RdlU4BrriGTr1AfN',#6,$,$,(#552),#565);
#567=IFCQUANTITYLENGTH('Width','',$,91.499999999999986,$);
#568=IFCQUANTITYLENGTH('Height','',$,121.99999999999999,$);
#569=IFCQUANTITYLENGTH('Perimeter','',$,426.99999999999864,$);
#570=IFCQUANTITYAREA('Area','',$,1.1162999999999998,$);
#571=IFCELEMENTQUANTITY('1kZkwKhud62d_XGcwhTifj',#6,'Qto_WindowBaseQuantities',$,$,(#567,#568,#569,#570));
#572=IFCRELDEFINESBYPROPERTIES('2C8t_TFIwj_2VXy_r9VZrN',#6,$,$,(#552),#571);
#573=IFCMAPPEDITEM(#528,#362);
#574=IFCSHAPEREPRESENTATION(#15,'Body','MappedRepresentation',(#573));
#575=IFCPRODUCTDEFINITIONSHAPE($,$,(#574));
#576=IFCCARTESIANPOINT((-1145.2327241955347,187.38407546614442,91.500000000000497));
#577=IFCAXIS2PLACEMENT3D(#576,#44,#45);
#579=IFCWINDOW('2DjbV_x2j23BsxEmD5wnE7',#6,'M_Fixed:0915 x 1220mm:216825',$,$,#1076,#575,'216825',121.99999999999977,91.499999999999915,.WINDOW.,.NOTDEFINED.,$);
#580=IFCMATERIALCONSTITUENT('Glass',$,#531,0.2516002424186396,'Glass');
#581=IFCMATERIALCONSTITUENT('Sash',$,#535,0.74839975758136035,'Wood');
#582=IFCMATERIALCONSTITUENTSET($,$,(#580,#581));
#583=IFCPROPERTYSET('3_qsQWvZbAJLVwq9SBZMN2',#6,'Pset_EnvironmentalImpactIndicators',$,(#556));
#584=IFCPROPERTYSET('0m1UfV4DLUZFuOsvxPnQrr',#6,'Pset_WindowCommon',$,(#91,#556));
#585=IFCRELDEFINESBYPROPERTIES('01rpcyC4Ooxjk3Tov9zkzr',#6,$,$,(#579),#583);
#586=IFCRELDEFINESBYPROPERTIES('0p1Afd38TGRtTa$pjihD59',#6,$,$,(#579),#584);
#587=IFCQUANTITYAREA('GrossSurfaceArea','',$,2.817589999999869,$);
#588=IFCQUANTITYAREA('NetSurfaceArea','',$,4.5531280000001884,$);
#589=IFCQUANTITYVOLUME('GrossVolume','',$,0.15293309999996857,$);
#590=IFCQUANTITYVOLUME('NetVolume','',$,0.041168450000001314,$);
#591=IFCELEMENTQUANTITY('0CXV10qK5CpLuZ92dqI5UT',#6,'Qto_BodyGeometryValidation',$,$,(#587,#588,#589,#590));
#592=IFCRELDEFINESBYPROPERTIES('0ON0AWCkFceMAaZE8CJ6u0',#6,$,$,(#579),#591);
#593=IFCQUANTITYLENGTH('Width','',$,91.499999999999986,$);
#594=IFCQUANTITYLENGTH('Height','',$,121.99999999999999,$);
#595=IFCQUANTITYLENGTH('Perimeter','',$,426.99999999999864,$);
#596=IFCQUANTITYAREA('Area','',$,1.1162999999999998,$);
#597=IFCELEMENTQUANTITY('0$VCC8klnd3_2fgp_aVKT6',#6,'Qto_WindowBaseQuantities',$,$,(#593,#594,#595,#596));
#598=IFCRELDEFINESBYPROPERTIES('0c5gYKpXzHOKgYi6qVtLhW',#6,$,$,(#579),#597);
#599=IFCMAPPEDITEM(#528,#362);
#600=IFCSHAPEREPRESENTATION(#15,'Body','MappedRepresentation',(#599));
#601=IFCPRODUCTDEFINITIONSHAPE($,$,(#600));
#602=IFCCARTESIANPOINT((-525.23272419553518,210.88407546614278,91.500000000000497));
#603=IFCAXIS2PLACEMENT3D(#602,#44,#149);
#605=IFCWINDOW('2DjbV_x2j23BsxEmD5wn9Z',#6,'M_Fixed:0915 x 1220mm:216861',$,$,#1216,#601,'216861',121.99999999999977,91.499999999999929,.WINDOW.,.NOTDEFINED.,$);
#606=IFCMATERIALCONSTITUENT('Glass',$,#531,0.2516002424186396,'Glass');
#607=IFCMATERIALCONSTITUENT('Sash',$,#535,0.74839975758136035,'Wood');
#608=IFCMATERIALCONSTITUENTSET($,$,(#606,#607));
#609=IFCPROPERTYSET('2QTtpm4dht8Yzh82gSNEiH',#6,'Pset_EnvironmentalImpactIndicators',$,(#556));
#610=IFCPROPERTYSET('3sSjgNC7rnyOOTHkoWDwgc',#6,'Pset_WindowCommon',$,(#91,#556));
#611=IFCRELDEFINESBYPROPERTIES('1nHSUlixLYjuH0HG5PkuuR',#6,$,$,(#605),#609);
#612=IFCRELDEFINESBYPROPERTIES('3QAmLDKqdCh7p1I7qlbHwA',#6,$,$,(#605),#610);
#613=IFCQUANTITYAREA('GrossSurfaceArea','',$,2.817589999999869,$);
#614=IFCQUANTITYAREA('NetSurfaceArea','',$,4.5531280000001884,$);
#615=IFCQUANTITYVOLUME('GrossVolume','',$,0.15293309999996857,$);
#616=IFCQUANTITYVOLUME('NetVolume','',$,0.041168450000001633,$);
#617=IFCELEMENTQUANTITY('3SkyssdSEw9Bhca21m_Esj',#6,'Qto_BodyGeometryValidation',$,$,(#613,#614,#615,#616));
#618=IFCRELDEFINESBYPROPERTIES('3o4Lsk_omKXIkRP2HzDLPZ',#6,$,$,(#605),#617);
#619=IFCQUANTITYLENGTH('Width','',$,91.499999999999986,$);
#620=IFCQUANTITYLENGTH('Height','',$,121.99999999999999,$);
#621=IFCQUANTITYLENGTH('Perimeter','',$,426.99999999999864,$);
#622=IFCQUANTITYAREA('Area','',$,1.1162999999999998,$);
#623=IFCELEMENTQUANTITY('0RjodVqOyB7HUfJgfgDtCI',#6,'Qto_WindowBaseQuantities',$,$,(#619,#620,#621,#622));
#624=IFCRELDEFINESBYPROPERTIES('3GkDyubaOlIcbXZ5OIVD4i',#6,$,$,(#605),#623);
#625=IFCMAPPEDITEM(#528,#362);
#626=IFCSHAPEREPRESENTATION(#15,'Body','MappedRepresentation',(#625));
#627=IFCPRODUCTDEFINITIONSHAPE($,$,(#626));
#628=IFCCARTESIANPOINT((-545.23272419553473,192.38407546614269,91.500000000000497));
#629=IFCAXIS2PLACEMENT3D(#628,#44,#45);
#631=IFCWINDOW('2DjbV_x2j23BsxEmD5wn91',#6,'M_Fixed:0915 x 1220mm:216895',$,$,#1236,#627,'216895',121.99999999999977,91.499999999999915,.WINDOW.,.NOTDEFINED.,$);
#632=IFCMATERIALCONSTITUENT('Glass',$,#531,0.2516002424186396,'Glass');
#633=IFCMATERIALCONSTITUENT('Sash',$,#535,0.74839975758136035,'Wood');
#634=IFCMATERIALCONSTITUENTSET($,$,(#632,#633));
#635=IFCPROPERTYSET('05_hTUZ8dF0cb4em5fXFLo',#6,'Pset_EnvironmentalImpactIndicators',$,(#556));
#636=IFCPROPERTYSET('1VyYPiIJqwJBL2Z8Z$x5Hi',#6,'Pset_WindowCommon',$,(#91,#556));
#637=IFCRELDEFINESBYPROPERTIES('05lTPtEdUwY1EKtRbRXOAS',#6,$,$,(#631),#635);
#638=IFCRELDEFINESBYPROPERTIES('1VIIIoewtPfRTPsbJHY4$4',#6,$,$,(#631),#636);
#639=IFCQUANTITYAREA('GrossSurfaceArea','',$,2.817589999999869,$);
#640=IFCQUANTITYAREA('NetSurfaceArea','',$,4.5531280000001884,$);
#641=IFCQUANTITYVOLUME('GrossVolume','',$,0.15293309999996857,$);
#642=IFCQUANTITYVOLUME('NetVolume','',$,0.041168450000001647,$);
#643=IFCELEMENTQUANTITY('1_w9bkIofEmkV7Yq5QCYCN',#6,'Qto_BodyGeometryValidation',$,$,(#639,#640,#641,#642));
#644=IFCRELDEFINESBYPROPERTIES('1cXk_KRpWvV7bsDqHjKx5g',#6,$,$,(#631),#643);
#645=IFCQUANTITYLENGTH('Width','',$,91.499999999999986,$);
#646=IFCQUANTITYLENGTH('Height','',$,121.99999999999999,$);
#647=IFCQUANTITYLENGTH('Perimeter','',$,426.99999999999864,$);
#648=IFCQUANTITYAREA('Area','',$,1.1162999999999998,$);
#649=IFCELEMENTQUANTITY('2xu0AJQWyfXi46ZuGCaBYb',#6,'Qto_WindowBaseQuantities',$,$,(#645,#646,#647,#648));
#650=IFCRELDEFINESBYPROPERTIES('1PF8UeIlA_gZUAjDIZHWvY',#6,$,$,(#631),#649);
#651=IFCMAPPEDITEM(#528,#362);
#652=IFCSHAPEREPRESENTATION(#15,'Body','MappedRepresentation',(#651));
#653=IFCPRODUCTDEFINITIONSHAPE($,$,(#652));
#654=IFCCARTESIANPOINT((-960.98272419553552,-273.36592453385634,91.500000000000497));
#655=IFCAXIS2PLACEMENT3D(#654,$,$);
#657=IFCWINDOW('2DjbV_x2j23BsxEmD5wn8B',#6,'M_Fixed:0915 x 1220mm:216949',$,$,#1116,#653,'216949',121.99999999999977,91.499999999999986,.WINDOW.,.NOTDEFINED.,$);
#658=IFCMATERIALCONSTITUENT('Glass',$,#531,0.2516002424186396,'Glass');
#659=IFCMATERIALCONSTITUENT('Sash',$,#535,0.74839975758136035,'Wood');
#660=IFCMATERIALCONSTITUENTSET($,$,(#658,#659));
#661=IFCPROPERTYSET('2G_uMspYNd7Q3vWtC6TzE6',#6,'Pset_EnvironmentalImpactIndicators',$,(#556));
#662=IFCPROPERTYSET('39_3Fd$cinv6yXMwPtzIwu',#6,'Pset_WindowCommon',$,(#91,#556));
#663=IFCRELDEFINESBYPROPERTIES('3v7QfYBh32RV_UPccVehGp',#6,$,$,(#657),#661);
#664=IFCRELDEFINESBYPROPERTIES('0py9r8P0kb744Lwtxrer0o',#6,$,$,(#657),#662);
#665=IFCQUANTITYAREA('GrossSurfaceArea','',$,2.817589999999869,$);
#666=IFCQUANTITYAREA('NetSurfaceArea','',$,4.5531280000001884,$);
#667=IFCQUANTITYVOLUME('GrossVolume','',$,0.15293309999996857,$);
#668=IFCQUANTITYVOLUME('NetVolume','',$,0.041168450000001494,$);
#669=IFCELEMENTQUANTITY('2dOBTVvqbNiIabXYEfTxHP',#6,'Qto_BodyGeometryValidation',$,$,(#665,#666,#667,#668));
#670=IFCRELDEFINESBYPROPERTIES('0Z038svZ7l0xAfsFxa2CN2',#6,$,$,(#657),#669);
#671=IFCQUANTITYLENGTH('Width','',$,91.499999999999986,$);
#672=IFCQUANTITYLENGTH('Height','',$,121.99999999999999,$);
#673=IFCQUANTITYLENGTH('Perimeter','',$,426.99999999999864,$);
#674=IFCQUANTITYAREA('Area','',$,1.1162999999999998,$);
#675=IFCELEMENTQUANTITY('0rd5Sbia_Zs3rdgmpaQZXd',#6,'Qto_WindowBaseQuantities',$,$,(#671,#672,#673,#674));
#676=IFCRELDEFINESBYPROPERTIES('0g0b8DflAwwmbAQdoA8$J5',#6,$,$,(#657),#675);
#677=IFCMAPPEDITEM(#528,#362);
#678=IFCSHAPEREPRESENTATION(#15,'Body','MappedRepresentation',(#677));
#679=IFCPRODUCTDEFINITIONSHAPE($,$,(#678));
#680=IFCCARTESIANPOINT((-650.98272419553552,-273.36592453385714,91.500000000000497));
#681=IFCAXIS2PLACEMENT3D(#680,$,$);
#683=IFCWINDOW('2DjbV_x2j23BsxEmD5wmqX',#6,'M_Fixed:0915 x 1220mm:217183',$,$,#1136,#679,'217183',121.99999999999977,91.499999999999986,.WINDOW.,.NOTDEFINED.,$);
#684=IFCMATERIALCONSTITUENT('Glass',$,#531,0.2516002424186396,'Glass');
#685=IFCMATERIALCONSTITUENT('Sash',$,#535,0.74839975758136035,'Wood');
#686=IFCMATERIALCONSTITUENTSET($,$,(#684,#685));
#687=IFCPROPERTYSET('1PEMPm90eNM1RCzD5fMQD9',#6,'Pset_EnvironmentalImpactIndicators',$,(#556));
#688=IFCPROPERTYSET('3mZnG7NjGIF0oFpUzjPw4V',#6,'Pset_WindowCommon',$,(#91,#556));
#689=IFCRELDEFINESBYPROPERTIES('35hGZ3TrFEHCeaizwJ3JGZ',#6,$,$,(#683),#687);
#690=IFCRELDEFINESBYPROPERTIES('2es$HiudJvQls$cWw5DFle',#6,$,$,(#683),#688);
#691=IFCQUANTITYAREA('GrossSurfaceArea','',$,2.817589999999869,$);
#692=IFCQUANTITYAREA('NetSurfaceArea','',$,4.5531280000001884,$);
#693=IFCQUANTITYVOLUME('GrossVolume','',$,0.15293309999996857,$);
#694=IFCQUANTITYVOLUME('NetVolume','',$,0.041168450000001515,$);
#695=IFCELEMENTQUANTITY('3i9gj1qzWNsP1eeqLntb9E',#6,'Qto_BodyGeometryValidation',$,$,(#691,#692,#693,#694));
#696=IFCRELDEFINESBYPROPERTIES('1mjL5XSKpZGmvwu$RRW6VE',#6,$,$,(#683),#695);
#697=IFCQUANTITYLENGTH('Width','',$,91.499999999999986,$);
#698=IFCQUANTITYLENGTH('Height','',$,121.99999999999999,$);
#699=IFCQUANTITYLENGTH('Perimeter','',$,426.99999999999864,$);
#700=IFCQUANTITYAREA('Area','',$,1.1162999999999998,$);
#701=IFCELEMENTQUANTITY('311WRumwCIf8lqeh3SfgJC',#6,'Qto_WindowBaseQuantities',$,$,(#697,#698,#699,#700));
#702=IFCRELDEFINESBYPROPERTIES('3h_7FdiToXio24ZPl_xU6f',#6,$,$,(#683),#701);
#703=IFCMAPPEDITEM(#528,#362);
#704=IFCSHAPEREPRESENTATION(#15,'Body','MappedRepresentation',(#703));
#705=IFCPRODUCTDEFINITIONSHAPE($,$,(#704));
#706=IFCCARTESIANPOINT((-765.98272419553552,-273.3659245338568,91.500000000000497));
#707=IFCAXIS2PLACEMENT3D(#706,$,$);
#709=IFCWINDOW('2DjbV_x2j23BsxEmD5wmsq',#6,'M_Fixed:0915 x 1220mm:217290',$,$,#1156,#705,'217290',121.99999999999977,91.499999999999986,.WINDOW.,.NOTDEFINED.,$);
#710=IFCMATERIALCONSTITUENT('Glass',$,#531,0.2516002424186396,'Glass');
#711=IFCMATERIALCONSTITUENT('Sash',$,#535,0.74839975758136035,'Wood');
#712=IFCMATERIALCONSTITUENTSET($,$,(#710,#711));
#713=IFCPROPERTYSET('0yhqZ08FDEgDy624sQH6WM',#6,'Pset_EnvironmentalImpactIndicators',$,(#556));
#714=IFCPROPERTYSET('3F6HrbDQrsjFMU1g1Yz2o9',#6,'Pset_WindowCommon',$,(#91,#556));
#715=IFCRELDEFINESBYPROPERTIES('27jmrjccUqGQ1h7oO0VsIC',#6,$,$,(#709),#713);
#716=IFCRELDEFINESBYPROPERTIES('3juoHMhGgHRnIOEoT9AEOZ',#6,$,$,(#709),#714);
#717=IFCQUANTITYAREA('GrossSurfaceArea','',$,2.817589999999869,$);
#718=IFCQUANTITYAREA('NetSurfaceArea','',$,4.5531280000001884,$);
#719=IFCQUANTITYVOLUME('GrossVolume','',$,0.15293309999996857,$);
#720=IFCQUANTITYVOLUME('NetVolume','',$,0.041168450000001515,$);
#721=IFCELEMENTQUANTITY('05jtO794iI1H9_V_L$KB61',#6,'Qto_BodyGeometryValidation',$,$,(#717,#718,#719,#720));
#722=IFCRELDEFINESBYPROPERTIES('1pGmiuBhmBJOYEwesUPWbR',#6,$,$,(#709),#721);
#723=IFCQUANTITYLENGTH('Width','',$,91.499999999999986,$);
#724=IFCQUANTITYLENGTH('Height','',$,121.99999999999999,$);
#725=IFCQUANTITYLENGTH('Perimeter','',$,426.99999999999864,$);
#726=IFCQUANTITYAREA('Area','',$,1.1162999999999998,$);
#727=IFCELEMENTQUANTITY('0IPe7mLQTo75xbmMBOTIhi',#6,'Qto_WindowBaseQuantities',$,$,(#723,#724,#725,#726));
#728=IFCRELDEFINESBYPROPERTIES('3G9KH71T8vDk3LLAyiGU3m',#6,$,$,(#709),#727);
#729=IFCAXIS2PLACEMENT3D(#731,$,$);
#730=IFCLOCALPLACEMENT(#32,#729);
#731=IFCCARTESIANPOINT((-1182.6378424097461,-299.43005997707803,-0.));
#732=IFCAXIS2PLACEMENT3D(#10,$,$);
#734=IFCCARTESIANPOINT((5.,193.41234017852454));
#735=IFCCARTESIANPOINT((-5.,193.41234017852435));
#736=IFCCARTESIANPOINT((-340.,-193.41234017852474));
#737=IFCCARTESIANPOINT((340.,-193.41234017852474));
#738=IFCPOLYLINE((#734,#735,#736,#737,#734));
#739=IFCARBITRARYCLOSEDPROFILEDEF(.AREA.,$,#738);
#740=IFCCARTESIANPOINT((340.,167.50000000000011,96.706170089262244));
#741=IFCDIRECTION((0.,-0.49999999999999978,0.86602540378443893));
#742=IFCAXIS2PLACEMENT3D(#740,#741,#305);
#743=IFCDIRECTION((0.,0.49999999999999978,0.86602540378443893));
#744=IFCEXTRUDEDAREASOLID(#739,#742,#743,34.641016151377521);
#745=IFCCOLOURRGB($,0.31372549019607843,0.31372549019607843,0.31372549019607843);
#746=IFCSURFACESTYLERENDERING(#745,0.,$,$,$,$,IFCNORMALISEDRATIOMEASURE(0.5),IFCSPECULAREXPONENT(10.),.NOTDEFINED.);
#747=IFCSURFACESTYLE('Default Roof',.BOTH.,(#746));
#748=IFCSTYLEDITEM(#744,(#747),$);
#749=IFCSHAPEREPRESENTATION(#15,'Body','SweptSolid',(#744));
#750=IFCPRODUCTDEFINITIONSHAPE($,$,(#749));
#751=IFCAXIS2PLACEMENT3D(#10,$,$);
#752=IFCLOCALPLACEMENT(#730,#1258);
#753=IFCSLAB('2DjbV_x2j23BsxEm55wmz5',#6,'Basic Roof:Generic Roof - 300mm:217659',$,$,#752,#750,'217659',.ROOF.);
#754=IFCQUANTITYAREA('NetArea',$,$,1.2398330119508369,$);
#755=IFCQUANTITYVOLUME('NetVolume',$,$,0.37194990358525093,$);
#756=IFCQUANTITYAREA('GrossArea',$,$,13.345451472318203,$);
#757=IFCQUANTITYVOLUME('GrossVolume',$,$,0.37194990358525093,$);
#758=IFCSLABTYPE('2JF4e6axWHqu3u0C1FZlpj',#6,'Basic Roof:Generic Roof - 300mm',$,$,$,$,'223',$,.ROOF.);
#759=IFCMATERIAL('Default Roof',$,'Miscellaneous');
#760=IFCSTYLEDITEM($,(#747),$);
#761=IFCSTYLEDREPRESENTATION(#13,'Style','Material',(#760));
#762=IFCMATERIALDEFINITIONREPRESENTATION($,$,(#761),#759);
#763=IFCMATERIALLAYER(#759,29.999999999999993,$,'Layer',$,'Miscellaneous',$);
#764=IFCMATERIALLAYERSET((#763),'Basic Roof:Generic Roof - 300mm',$);
#765=IFCAXIS2PLACEMENT3D(#10,$,$);
#767=IFCCARTESIANPOINT((-193.41234017852508,335.));
#768=IFCCARTESIANPOINT((-193.41234017852508,-335.));
#769=IFCCARTESIANPOINT((193.4123401785248,-0.));
#770=IFCPOLYLINE((#767,#768,#769,#767));
#771=IFCARBITRARYCLOSEDPROFILEDEF(.AREA.,$,#770);
#772=IFCCARTESIANPOINT((167.50000000000045,335.,96.706170089262244));
#773=IFCDIRECTION((-0.499999999999999,0.,0.86602540378443926));
#774=IFCDIRECTION((0.86602540378443926,0.,0.499999999999999));
#775=IFCAXIS2PLACEMENT3D(#772,#773,#774);
#776=IFCDIRECTION((0.499999999999999,0.,0.86602540378443926));
#777=IFCEXTRUDEDAREASOLID(#771,#775,#776,34.641016151377521);
#778=IFCSTYLEDITEM(#777,(#747),$);
#779=IFCSHAPEREPRESENTATION(#15,'Body','SweptSolid',(#777));
#780=IFCPRODUCTDEFINITIONSHAPE($,$,(#779));
#781=IFCAXIS2PLACEMENT3D(#10,$,$);
#782=IFCLOCALPLACEMENT(#730,#1259);
#783=IFCSLAB('2DjbV_x2j23BsxEm15wmz5',#6,'Basic Roof:Generic Roof - 300mm:217659',$,$,#782,#780,'217659',.ROOF.);
#784=IFCQUANTITYAREA('NetArea',$,$,1.2038958231986405,$);
#785=IFCQUANTITYVOLUME('NetVolume',$,$,0.36116874695959222,$);
#786=IFCQUANTITYAREA('GrossArea',$,$,12.958626791961171,$);
#787=IFCQUANTITYVOLUME('GrossVolume',$,$,0.36116874695959222,$);
#788=IFCAXIS2PLACEMENT3D(#10,$,$);
#790=IFCCARTESIANPOINT((340.,193.41234017852469));
#791=IFCCARTESIANPOINT((-340.,193.41234017852469));
#792=IFCCARTESIANPOINT((-5.,-193.41234017852469));
#793=IFCCARTESIANPOINT((5.,-193.41234017852452));
#794=IFCPOLYLINE((#790,#791,#792,#793,#790));
#795=IFCARBITRARYCLOSEDPROFILEDEF(.AREA.,$,#794);
#796=IFCCARTESIANPOINT((340.,502.5,96.706170089262244));
#797=IFCDIRECTION((0.,0.49999999999999978,0.86602540378443893));
#798=IFCAXIS2PLACEMENT3D(#796,#797,#305);
#799=IFCDIRECTION((0.,-0.49999999999999978,0.86602540378443893));
#800=IFCEXTRUDEDAREASOLID(#795,#798,#799,34.641016151377521);
#801=IFCSTYLEDITEM(#800,(#747),$);
#802=IFCSHAPEREPRESENTATION(#15,'Body','SweptSolid',(#800));
#803=IFCPRODUCTDEFINITIONSHAPE($,$,(#802));
#804=IFCAXIS2PLACEMENT3D(#10,$,$);
#805=IFCLOCALPLACEMENT(#730,#1260);
#806=IFCSLAB('2DjbV_x2j23BsxEmT5wmz5',#6,'Basic Roof:Generic Roof - 300mm:217659',$,$,#805,#803,'217659',.ROOF.);
#807=IFCQUANTITYAREA('NetArea',$,$,1.2398330119508372,$);
#808=IFCQUANTITYVOLUME('NetVolume',$,$,0.37194990358525098,$);
#809=IFCQUANTITYAREA('GrossArea',$,$,13.345451472318205,$);
#810=IFCQUANTITYVOLUME('GrossVolume',$,$,0.37194990358525098,$);
#811=IFCAXIS2PLACEMENT3D(#10,$,$);
#813=IFCCARTESIANPOINT((193.41234017852426,-335.));
#814=IFCCARTESIANPOINT((193.41234017852426,335.));
#815=IFCCARTESIANPOINT((-193.41234017852426,0.));
#816=IFCPOLYLINE((#813,#814,#815,#813));
#817=IFCARBITRARYCLOSEDPROFILEDEF(.AREA.,$,#816);
#818=IFCCARTESIANPOINT((512.50000000000045,335.,96.706170089262244));
#819=IFCDIRECTION((0.50000000000000067,0.,0.86602540378443837));
#820=IFCDIRECTION((0.86602540378443837,0.,-0.50000000000000067));
#821=IFCAXIS2PLACEMENT3D(#818,#819,#820);
#822=IFCDIRECTION((-0.50000000000000067,0.,0.86602540378443837));
#823=IFCEXTRUDEDAREASOLID(#817,#821,#822,34.641016151377521);
#824=IFCSTYLEDITEM(#823,(#747),$);
#825=IFCSHAPEREPRESENTATION(#15,'Body','SweptSolid',(#823));
#826=IFCPRODUCTDEFINITIONSHAPE($,$,(#825));
#827=IFCAXIS2PLACEMENT3D(#10,$,$);
#828=IFCLOCALPLACEMENT(#730,#1261);
#829=IFCSLAB('2DjbV_x2j23BsxEmP5wmz5',#6,'Basic Roof:Generic Roof - 300mm:217659',$,$,#828,#826,'217659',.ROOF.);
#830=IFCQUANTITYAREA('NetArea',$,$,1.2038958231986361,$);
#831=IFCQUANTITYVOLUME('NetVolume',$,$,0.36116874695959045,$);
#832=IFCQUANTITYAREA('GrossArea',$,$,12.958626791961125,$);
#833=IFCQUANTITYVOLUME('GrossVolume',$,$,0.36116874695959045,$);
#834=IFCROOF('2DjbV_x2j23BsxEmD5wmz5',#6,'Basic Roof:Generic Roof - 300mm:217659',$,$,#730,$,'217659',.NOTDEFINED.);
#835=IFCRELAGGREGATES('12LWnKWl05JMpJTwdfFkA8',#6,$,$,#834,(#753,#783,#806,#829));
#836=IFCPROPERTYSINGLEVALUE('Reference',$,IFCIDENTIFIER('Generic Roof - 300mm'),$);
#837=IFCPROPERTYSET('2o2uOMBBHzA_UqtnrVaSAR',#6,'Pset_EnvironmentalImpactIndicators',$,(#836));
#838=IFCPROPERTYSINGLEVALUE('Reference',$,IFCLABEL('Generic Roof - 300mm'),$);
#839=IFCPROPERTYSET('0UP4IKzMPdev_6MkXQC2OA',#6,'Pset_ReinforcementBarPitchOfSlab',$,(#838));
#840=IFCPROPERTYSINGLEVALUE('PitchAngle',$,IFCPLANEANGLEMEASURE(30.),$);
#841=IFCPROPERTYSET('3NmOjoYsYkPaL5QHWN8CxE',#6,'Pset_SlabCommon',$,(#91,#836,#840));
#842=IFCPROPERTYSET('3vlZynfqFAV0kuOtld0t6c',#6,'Pset_EnvironmentalImpactIndicators',$,(#836));
#843=IFCPROPERTYSINGLEVALUE('Reference',$,IFCLABEL('Generic Roof - 300mm'),$);
#844=IFCPROPERTYSET('0sfV76U7z47TPbC86av1jE',#6,'Pset_ReinforcementBarPitchOfSlab',$,(#843));
#845=IFCPROPERTYSET('3$4lUcIhNfmNwgK4j4WTwa',#6,'Pset_SlabCommon',$,(#91,#836,#840));
#846=IFCPROPERTYSET('1iFOOrkh2uDDfwe4AX2r7q',#6,'Pset_EnvironmentalImpactIndicators',$,(#836));
#847=IFCPROPERTYSINGLEVALUE('Reference',$,IFCLABEL('Generic Roof - 300mm'),$);
#848=IFCPROPERTYSET('2tICgpBKaI4mlsDx$Yzah_',#6,'Pset_ReinforcementBarPitchOfSlab',$,(#847));
#849=IFCPROPERTYSET('09$HkpbHQkwlIoLTt2cdP6',#6,'Pset_SlabCommon',$,(#91,#836,#840));
#850=IFCPROPERTYSET('00vfGVFYq1QfPzVJrXX8Ne',#6,'Pset_EnvironmentalImpactIndicators',$,(#836));
#851=IFCPROPERTYSINGLEVALUE('Reference',$,IFCLABEL('Generic Roof - 300mm'),$);
#852=IFCPROPERTYSET('0zrcHOQovcCALVQI5kTjje',#6,'Pset_ReinforcementBarPitchOfSlab',$,(#851));
#853=IFCPROPERTYSET('0qhVq5yc$8HTLN$36YE_0B',#6,'Pset_SlabCommon',$,(#91,#836,#840));
#854=IFCPROPERTYSET('2EOH$kwziRB$qMHoijitsB',#6,'Pset_EnvironmentalImpactIndicators',$,(#836));
#855=IFCPROPERTYSET('1DJ$dCQk58y49UNYrh520U',#6,'Pset_RoofCommon',$,(#91,#836));
#856=IFCRELDEFINESBYPROPERTIES('1nyIphaH0gGmt1niXRTuDS',#6,$,$,(#753),#837);
#857=IFCRELDEFINESBYPROPERTIES('1v84DzbyLbX7A$Nf9CBOgB',#6,$,$,(#753),#839);
#858=IFCRELDEFINESBYPROPERTIES('2HhkWbfPsgLOxEE1a21OM0',#6,$,$,(#753),#841);
#859=IFCRELDEFINESBYPROPERTIES('3oDS$NAbPQl9oi7WH2_TYU',#6,$,$,(#783),#842);
#860=IFCRELDEFINESBYPROPERTIES('1z0ACJwwL2vkwrG1bRTYIn',#6,$,$,(#783),#844);
#861=IFCRELDEFINESBYPROPERTIES('2z7S$sZeQr4wACgIPw1Oi0',#6,$,$,(#783),#845);
#862=IFCRELDEFINESBYPROPERTIES('3ZlzSdeV7QbttQtV6OlTB6',#6,$,$,(#806),#846);
#863=IFCRELDEFINESBYPROPERTIES('2V319ouz41cnrc$ofaOxWm',#6,$,$,(#806),#848);
#864=IFCRELDEFINESBYPROPERTIES('3tvDO09yVem1pagGaIT3To',#6,$,$,(#806),#849);
#865=IFCRELDEFINESBYPROPERTIES('1O5iCzP0F5f96WKxcONtoS',#6,$,$,(#829),#850);
#866=IFCRELDEFINESBYPROPERTIES('3M0dl1CuLqoKRZ6X_lRwph',#6,$,$,(#829),#852);
#867=IFCRELDEFINESBYPROPERTIES('0cdLQr_zCAOCsgh_csB9XG',#6,$,$,(#829),#853);
#868=IFCRELDEFINESBYPROPERTIES('1DkJdcDHV_OqWLRiyiGgyC',#6,$,$,(#834),#854);
#869=IFCRELDEFINESBYPROPERTIES('2fCtiWHNLcXz_KdBotd$80',#6,$,$,(#834),#855);
#870=IFCQUANTITYAREA('GrossSurfaceArea','',$,7.6199917395220851,$);
#871=IFCQUANTITYAREA('NetSurfaceArea','',$,114.56938741798935,$);
#872=IFCQUANTITYVOLUME('GrossVolume','',$,0.37194990358525093,$);
#873=IFCQUANTITYVOLUME('NetVolume','',$,15.782446958567606,$);
#874=IFCELEMENTQUANTITY('2pZefFy181aLbCy6APrPWT',#6,'Qto_BodyGeometryValidation',$,$,(#754,#755,#756,#757,#870,#871));
#875=IFCRELDEFINESBYPROPERTIES('0vTF4vj9kBAhboPnWzOgal',#6,$,$,(#753),#874);
#876=IFCQUANTITYAREA('GrossSurfaceArea','',$,7.4881173620176984,$);
#877=IFCQUANTITYAREA('NetSurfaceArea','',$,114.56938741798935,$);
#878=IFCQUANTITYVOLUME('GrossVolume','',$,0.36116874695959222,$);
#879=IFCQUANTITYVOLUME('NetVolume','',$,15.782446958567606,$);
#880=IFCELEMENTQUANTITY('17wpYi5IdnfHu8gny6AOPX',#6,'Qto_BodyGeometryValidation',$,$,(#784,#785,#786,#787,#876,#877));
#881=IFCRELDEFINESBYPROPERTIES('0KB$umM6st8klfLFgdxpzP',#6,$,$,(#783),#880);
#882=IFCQUANTITYAREA('GrossSurfaceArea','',$,7.619991739522086,$);
#883=IFCQUANTITYAREA('NetSurfaceArea','',$,114.56938741798935,$);
#884=IFCQUANTITYVOLUME('GrossVolume','',$,0.37194990358525098,$);
#885=IFCQUANTITYVOLUME('NetVolume','',$,15.782446958567606,$);
#886=IFCELEMENTQUANTITY('2DKWV_uFYUSqV4SwpIMf7R',#6,'Qto_BodyGeometryValidation',$,$,(#807,#808,#809,#810,#882,#883));
#887=IFCRELDEFINESBYPROPERTIES('0OXc1C9KnCwuHR3zS0g3w0',#6,$,$,(#806),#886);
#888=IFCQUANTITYAREA('GrossSurfaceArea','',$,7.4881173620176771,$);
#889=IFCQUANTITYAREA('NetSurfaceArea','',$,114.56938741798935,$);
#890=IFCQUANTITYVOLUME('GrossVolume','',$,0.36116874695959045,$);
#891=IFCQUANTITYVOLUME('NetVolume','',$,15.782446958567606,$);
#892=IFCELEMENTQUANTITY('2twNHkF4zvlcrf$BAo$sR$',#6,'Qto_BodyGeometryValidation',$,$,(#830,#831,#832,#833,#888,#889));
#893=IFCRELDEFINESBYPROPERTIES('2_sIvnt9n2uS79h257ghjd',#6,$,$,(#829),#892);
#894=IFCQUANTITYAREA('NetSurfaceArea','',$,114.56938741798935,$);
#895=IFCQUANTITYVOLUME('NetVolume','',$,15.782446958567606,$);
#896=IFCELEMENTQUANTITY('1UOllK3XCapj1Hp1_GCbp7',#6,'Qto_BodyGeometryValidation',$,$,(#894,#895));
#897=IFCRELDEFINESBYPROPERTIES('35v2OtgQpU$DVtje_SBQRR',#6,$,$,(#834),#896);
#898=IFCQUANTITYAREA('GrossArea','',$,52.608156528558709,$);
#899=IFCQUANTITYAREA('NetArea','',$,52.608156528558709,$);
#900=IFCQUANTITYAREA('ProjectedArea','',$,45.560000000000002,$);
#901=IFCELEMENTQUANTITY('2s5bVa8QG8mRYmkXc7EkuH',#6,'Qto_RoofBaseQuantities',$,$,(#898,#899,#900));
#902=IFCRELDEFINESBYPROPERTIES('0WWuO6n2iKDd_Gq6HO$DlY',#6,$,$,(#834),#901);
#903=IFCQUANTITYLENGTH('Length','',$,29.999999999999989,$);
#904=IFCQUANTITYLENGTH('Perimeter','',$,1713.4419052068042,$);
#905=IFCQUANTITYAREA('GrossArea','',$,1.2398330119508369,$);
#906=IFCQUANTITYAREA('NetArea','',$,52.608156528558709,$);
#907=IFCQUANTITYVOLUME('GrossVolume','',$,0.37194990358525093,$);
#908=IFCQUANTITYVOLUME('NetVolume','',$,15.782446958567606,$);
#909=IFCELEMENTQUANTITY('31auCe8uk95n7J0wQM3dlZ',#6,'Qto_SlabBaseQuantities',$,$,(#754,#755,#756,#757,#903,#904));
#910=IFCRELDEFINESBYPROPERTIES('3LimF1C4wYmKC_XD8H8zs5',#6,$,$,(#753),#909);
#911=IFCQUANTITYLENGTH('Length','',$,30.,$);
#912=IFCQUANTITYLENGTH('Perimeter','',$,1693.4419052068056,$);
#913=IFCQUANTITYAREA('GrossArea','',$,1.2038958231986405,$);
#914=IFCQUANTITYAREA('NetArea','',$,52.608156528558709,$);
#915=IFCQUANTITYVOLUME('GrossVolume','',$,0.36116874695959222,$);
#916=IFCQUANTITYVOLUME('NetVolume','',$,15.782446958567606,$);
#917=IFCELEMENTQUANTITY('1nIl2usUgHxl0qoVjNDavI',#6,'Qto_SlabBaseQuantities',$,$,(#784,#785,#786,#787,#911,#912));
#918=IFCRELDEFINESBYPROPERTIES('0NFPzD4S773YoV4JC1Mwku',#6,$,$,(#783),#917);
#919=IFCQUANTITYLENGTH('Length','',$,29.999999999999989,$);
#920=IFCQUANTITYLENGTH('Perimeter','',$,1713.4419052068044,$);
#921=IFCQUANTITYAREA('GrossArea','',$,1.2398330119508372,$);
#922=IFCQUANTITYAREA('NetArea','',$,52.608156528558709,$);
#923=IFCQUANTITYVOLUME('GrossVolume','',$,0.37194990358525098,$);
#924=IFCQUANTITYVOLUME('NetVolume','',$,15.782446958567606,$);
#925=IFCELEMENTQUANTITY('2ywE4oyX0RnfR$L2rU1cDK',#6,'Qto_SlabBaseQuantities',$,$,(#807,#808,#809,#810,#919,#920));
#926=IFCRELDEFINESBYPROPERTIES('3JcCDL_rg7rTYOSSRPJh5s',#6,$,$,(#806),#925);
#927=IFCQUANTITYLENGTH('Length','',$,29.999999999999968,$);
#928=IFCQUANTITYLENGTH('Perimeter','',$,1693.4419052068033,$);
#929=IFCQUANTITYAREA('GrossArea','',$,1.2038958231986361,$);
#930=IFCQUANTITYAREA('NetArea','',$,52.608156528558709,$);
#931=IFCQUANTITYVOLUME('GrossVolume','',$,0.36116874695959045,$);
#932=IFCQUANTITYVOLUME('NetVolume','',$,15.782446958567606,$);
#933=IFCELEMENTQUANTITY('2tH39ODC9JfwVIKim0RK31',#6,'Qto_SlabBaseQuantities',$,$,(#830,#831,#832,#833,#927,#928));
#934=IFCRELDEFINESBYPROPERTIES('1i4Flk47lDmH7_ETXaJdo3',#6,$,$,(#829),#933);
#935=IFCAXIS2PLACEMENT3D(#10,$,$);
#936=IFCLOCALPLACEMENT(#24,#935);
#937=IFCCARTESIANPOINT((0.,0.));
#938=IFCAXIS2PLACEMENT2D(#937,#119);
#939=IFCRECTANGLEPROFILEDEF(.AREA.,$,#938,710.,720.);
#940=IFCCARTESIANPOINT((-842.42291920832429,48.946419241345517,47.958593121214435));
#941=IFCAXIS2PLACEMENT3D(#940,#323,#149);
#942=IFCEXTRUDEDAREASOLID(#939,#941,#44,40.);
#943=IFCSTYLEDITEM(#942,(#747),$);
#944=IFCSHAPEREPRESENTATION(#15,'Body','SweptSolid',(#942));
#945=IFCPRODUCTDEFINITIONSHAPE($,$,(#944));
#946=IFCSLAB('37G9D5lmP5Hx5TcL3SNO3N',#6,'Floor:Generic Floor - 400mm:217761',$,$,#936,#945,'217761',.FLOOR.);
#947=IFCSLABTYPE('2JF4e6axWHqu3u0C1FZlpG',#6,'Floor:Generic Floor - 400mm',$,$,$,$,'226',$,.FLOOR.);
#948=IFCMATERIALLAYER(#759,40.,$,'Layer',$,'Miscellaneous',$);
#949=IFCMATERIALLAYERSET((#948),'Floor:Generic Floor - 400mm',$);
#950=IFCMATERIALLAYERSETUSAGE(#949,.AXIS3.,.POSITIVE.,0.,$);
#951=IFCPROPERTYSINGLEVALUE('Reference',$,IFCIDENTIFIER('Generic Floor - 400mm'),$);
#952=IFCPROPERTYSET('0G7va_4xo6yicmZnJQUcik',#6,'Pset_EnvironmentalImpactIndicators',$,(#951));
#953=IFCPROPERTYSINGLEVALUE('Reference',$,IFCLABEL('Generic Floor - 400mm'),$);
#954=IFCPROPERTYSET('0hX5bYCe1ikJOIPdHlwDKy',#6,'Pset_ReinforcementBarPitchOfSlab',$,(#953));
#955=IFCPROPERTYSINGLEVALUE('PitchAngle',$,IFCPLANEANGLEMEASURE(0.),$);
#956=IFCPROPERTYSET('24dpDYEPqPgHY8bG_iG4qg',#6,'Pset_SlabCommon',$,(#39,#92,#951,#955));
#957=IFCRELDEFINESBYPROPERTIES('37V11pQ18hRbBcL2RC45CH',#6,$,$,(#946),#952);
#958=IFCRELDEFINESBYPROPERTIES('20z$sa3AduYOPMQsYxKBe7',#6,$,$,(#946),#954);
#959=IFCRELDEFINESBYPROPERTIES('2RabtY3Ij7xwaZYvkj$PvF',#6,$,$,(#946),#956);
#960=IFCQUANTITYAREA('GrossSurfaceArea','',$,113.68000000000001,$);
#961=IFCQUANTITYAREA('NetSurfaceArea','',$,113.67999999999999,$);
#962=IFCQUANTITYVOLUME('GrossVolume','',$,20.448000000000004,$);
#963=IFCQUANTITYVOLUME('NetVolume','',$,20.448000000000004,$);
#964=IFCELEMENTQUANTITY('3HnzvfCG06fFOpNwsX0iku',#6,'Qto_BodyGeometryValidation',$,$,(#960,#961,#962,#963));
#965=IFCRELDEFINESBYPROPERTIES('1Udc8AE12tK9ufZS8xodfX',#6,$,$,(#946),#964);
#966=IFCQUANTITYLENGTH('Width','',$,720.,$);
#967=IFCQUANTITYLENGTH('Length','',$,710.,$);
#968=IFCQUANTITYLENGTH('Depth','',$,40.,$);
#969=IFCQUANTITYLENGTH('Perimeter','',$,93.832020997375338,$);
#970=IFCQUANTITYAREA('GrossArea','',$,51.120000000000005,$);
#971=IFCQUANTITYAREA('NetArea','',$,51.120000000000005,$);
#972=IFCQUANTITYVOLUME('GrossVolume','',$,20.448000000000004,$);
#973=IFCQUANTITYVOLUME('NetVolume','',$,20.448000000000004,$);
#974=IFCELEMENTQUANTITY('3NdQBhjkgkF_cOap4_s3In',#6,'Qto_SlabBaseQuantities',$,$,(#966,#967,#968,#969,#970,#971,#972,#973));
#975=IFCRELDEFINESBYPROPERTIES('2H3QcO_V4HFTOGEgo_K8h$',#6,$,$,(#946),#974);
#976=IFCPROPERTYSINGLEVALUE('Reference',$,IFCIDENTIFIER('8mm Head'),$);
#977=IFCPROPERTYSINGLEVALUE('AboveGround',$,IFCLOGICAL(.U.),$);
#978=IFCPROPERTYSET('0YVBu0eogABedARibQfE8b',#6,'Pset_BuildingStoreyCommon',$,(#976,#977));
#979=IFCPROPERTYSET('34UgcgRWmjDNAsuqvKnRnM',#6,'Pset_SpaceCommon',$,(#39,#976));
#980=IFCRELDEFINESBYPROPERTIES('27HmAJwXsme0gA8iRg$Eul',#6,$,$,(#25),#978);
#981=IFCRELDEFINESBYPROPERTIES('2ThgOkAwi1I0Xg8jtC4Ujh',#6,$,$,(#25),#979);
#982=IFCRELCONTAINEDINSPATIALSTRUCTURE('1vK3KfqgSHqv5Y0066FnIY',#6,$,$,(#946),#25);
#983=IFCPROPERTYSET('2WI4xIOHkwhPzb95IMbLX0',#6,'Pset_BuildingStoreyCommon',$,(#976,#977));
#984=IFCPROPERTYSET('2ck4N$M03Gx6CrBAe_5AJm',#6,'Pset_SpaceCommon',$,(#39,#976));
#985=IFCRELDEFINESBYPROPERTIES('06uiQwwCWcfhOT2$IXJoOD',#6,$,$,(#29),#983);
#986=IFCRELDEFINESBYPROPERTIES('1XOtMFXGJ1yWy7UBeLA9dQ',#6,$,$,(#29),#984);
#987=IFCRELCONTAINEDINSPATIALSTRUCTURE('2DjbV_x2j23BsxEm95wnk2',#6,$,$,(#64,#126,#163,#200,#236,#272,#369,#396,#422,#448,#552,#579,#605,#631,#657,#683,#709),#29);
#988=IFCPROPERTYSET('1c_2oOCqr4SEA1yQPIIwk3',#6,'Pset_BuildingStoreyCommon',$,(#976,#977));
#989=IFCPROPERTYSET('2bvzAJZzwEQGW08ZYJR7__',#6,'Pset_SpaceCommon',$,(#39,#976));
#990=IFCRELDEFINESBYPROPERTIES('2NEmZloI56_iIMqH4jNDXM',#6,$,$,(#33),#988);
#991=IFCRELDEFINESBYPROPERTIES('2MaEtOmQUb8tQ9kLjQWeCl',#6,$,$,(#33),#989);
#992=IFCRELCONTAINEDINSPATIALSTRUCTURE('14lOI8vZuHqv6B0066Fnc4',#6,$,$,(#834),#33);
#993=IFCRELAGGREGATES('0pYJlprkQLvihmqRrk5bSM',#6,$,$,#18,(#36));
#994=IFCRELAGGREGATES('0eNn0MbF9J9n3dXRC8z4hc',#6,$,$,#36,(#22));
#995=IFCRELAGGREGATES('3ioAY2VOL1QOEtMGyzl4Rh',#6,$,$,#22,(#25,#29,#33));
#996=IFCPROPERTYSINGLEVALUE('NumberOfStoreys',$,IFCCOUNTMEASURE(3),$);
#997=IFCPROPERTYSINGLEVALUE('IsLandmarked',$,IFCLOGICAL(.U.),$);
#998=IFCPROPERTYSET('3tiX3W5FCckzmNYQL4MYC_',#6,'Pset_BuildingCommon',$,(#37,#996,#997));
#999=IFCPROPERTYSET('3CQA_$Fp2yvgTzaR9abeXj',#6,'Pset_SpaceCommon',$,(#37,#39));
#1000=IFCRELDEFINESBYPROPERTIES('1UC7w8RErr7a54iDXcBwAg',#6,$,$,(#22),#998);
#1001=IFCRELDEFINESBYPROPERTIES('25WMaWmy6L667Ge4Ppw0lQ',#6,$,$,(#22),#999);
#1002=IFCRELASSOCIATESMATERIAL('3jT_$YwsVOHidD2UltNpqA',#6,$,$,(#946),#950);
#1003=IFCRELASSOCIATESMATERIAL('2AYfMokl$MCzG7U3XY$FgI',#6,$,$,(#346),#361);
#1004=IFCRELASSOCIATESMATERIAL('306ccjZsdNKbc7lV_SUHe5',#6,$,$,(#369),#372);
#1005=IFCRELASSOCIATESMATERIAL('1pbbhfxVmw_JnNn76ZkgAz',#6,$,$,(#396),#399);
#1006=IFCRELASSOCIATESMATERIAL('00997HrVkGEPrq$wj$EIpE',#6,$,$,(#422),#425);
#1007=IFCRELASSOCIATESMATERIAL('2QS23EzjGBGhMehoKKSmz_',#6,$,$,(#448),#451);
#1008=IFCRELASSOCIATESMATERIAL('0Q1Gkol96NVT_XQBA62FEG',#6,$,$,(#530),#545);
#1009=IFCRELASSOCIATESMATERIAL('3hNIQA5U5hA2PDpPjUC9rB',#6,$,$,(#552),#555);
#1010=IFCRELASSOCIATESMATERIAL('2_4igb$q3dOMSCZozNV35L',#6,$,$,(#579),#582);
#1011=IFCRELASSOCIATESMATERIAL('1rMN5kFhZ2ufwJpVPnD21M',#6,$,$,(#605),#608);
#1012=IFCRELASSOCIATESMATERIAL('22ieT7$s7q$2Q0Ja5ZpJ5u',#6,$,$,(#631),#634);
#1013=IFCRELASSOCIATESMATERIAL('34HqWG$4Jgiyyja4xW1a39',#6,$,$,(#657),#660);
#1014=IFCRELASSOCIATESMATERIAL('2OyATqJaxcmWjN322T2o0G',#6,$,$,(#683),#686);
#1015=IFCRELASSOCIATESMATERIAL('0aRSG_AxZ_aDLorcYQjUJK',#6,$,$,(#709),#712);
#1016=IFCRELASSOCIATESMATERIAL('3NptH7q6fUE97RhM3ll2gB',#6,$,$,(#64,#86,#126,#163,#200,#236,#272),#85);
#1017=IFCRELASSOCIATESMATERIAL('3UTG_ZS$8mNrLkAEqyzCU9',#6,$,$,(#753,#783,#806,#829,#834),#764);
#1018=IFCRELASSOCIATESMATERIAL('02oUJKkjCCCRpNtiOiAZIB',#6,$,$,(#947),#949);
#1019=IFCRELDEFINESBYTYPE('3XLxvs7By4sL6jpzqyhO5y',#6,$,$,(#64,#126,#163,#200,#236,#272),#86);
#1020=IFCRELDEFINESBYTYPE('1McafCos9AeXozq6zaXtUU',#6,$,$,(#369,#396,#422,#448),#346);
#1021=IFCRELDEFINESBYTYPE('0BzfYaEjNdJur0gsRH_Bg4',#6,$,$,(#552,#579,#605,#631,#657,#683,#709),#530);
#1022=IFCRELDEFINESBYTYPE('2HXQjnr8pdtI_OlMwZiaG7',#6,$,$,(#753,#783,#806,#829),#758);
#1023=IFCRELDEFINESBYTYPE('2arEeDgEquy6PQafdl69kP',#6,$,$,(#946),#947);
#1024=IFCRELCONNECTSPATHELEMENTS('1ybloPE8Za5Cf4jKMI8spe',#6,'2DjbV_x2j23BsxEmD5wnIA|2DjbV_x2j23BsxEmD5wnPo','Structural',$,#64,#272,(),(),.ATSTART.,.ATSTART.);
#1025=IFCRELCONNECTSPATHELEMENTS('2kkj4CtytqWo$J6jfQKRA_',#6,'2DjbV_x2j23BsxEmD5wnIA|2DjbV_x2j23BsxEmD5wnTL','Structural',$,#64,#126,(),(),.ATSTART.,.ATEND.);
#1026=IFCRELCONNECTSPATHELEMENTS('3YOaEAgofKHJdyIEATVLKl',#6,'2DjbV_x2j23BsxEmD5wnTL|2DjbV_x2j23BsxEmD5wnV4','Structural',$,#126,#236,(),(),.ATEND.,.ATEND.);
#1027=IFCRELCONNECTSPATHELEMENTS('1DYquL3VB4yNSLm8eNxpTh',#6,'2DjbV_x2j23BsxEmD5wnTL|2DjbV_x2j23BsxEmD5wnSo','Structural',$,#126,#163,(),(),.ATSTART.,.ATPATH.);
#1028=IFCRELCONNECTSPATHELEMENTS('0TC4k7k4Q0rWxvumhoe1le',#6,'2DjbV_x2j23BsxEmD5wnSo|2DjbV_x2j23BsxEmD5wnSH','Structural',$,#163,#200,(),(),.ATPATH.,.ATEND.);
#1029=IFCRELCONNECTSPATHELEMENTS('3gwCWhI8Yi1hzdGk35Pftc',#6,'2DjbV_x2j23BsxEmD5wnSH|2DjbV_x2j23BsxEmD5wnV4','Structural',$,#200,#236,(),(),.ATPATH.,.ATSTART.);
#1030=IFCRELCONNECTSPATHELEMENTS('151$6HiaZ_8$CSpfKp2Kq$',#6,'2DjbV_x2j23BsxEmD5wnIA|2DjbV_x2j23BsxEmD5wnSH','Structural',$,#64,#200,(),(),.ATEND.,.ATPATH.);
#1031=IFCRELCONNECTSPATHELEMENTS('0a4vO383AfqGnTTJ288m1a',#6,'2DjbV_x2j23BsxEmD5wnV4|2DjbV_x2j23BsxEmD5wnPo','Structural',$,#236,#272,(),(),.ATEND.,.ATSTART.);
#1032=IFCPRESENTATIONLAYERASSIGNMENT('A-WALL',$,(#51,#63,#116,#125,#154,#162,#191,#199,#227,#235,#263,#271),$);
#1033=IFCPRESENTATIONLAYERASSIGNMENT('A-DOOR',$,(#341,#356,#359,#364,#391,#417,#443),$);
#1034=IFCPRESENTATIONLAYERASSIGNMENT('A-GLAZ',$,(#526,#540,#543,#547,#574,#600,#626,#652,#678,#704),$);
#1035=IFCPRESENTATIONLAYERASSIGNMENT('A-ROOF',$,(#749,#779,#802,#825),$);
#1036=IFCPRESENTATIONLAYERASSIGNMENT('A-FLOR',$,(#944),$);
#1037=IFCCARTESIANPOINT((60.999999999999886,45.749999999999964));
#1038=IFCAXIS2PLACEMENT2D(#1037,#119);
#1039=IFCRECTANGLEPROFILEDEF(.AREA.,$,#1038,121.99999999999977,91.499999999999929);
#1040=IFCAXIS2PLACEMENT3D(#10,#149,#44);
#1041=IFCEXTRUDEDAREASOLID(#1039,#1040,#44,20.);
#1042=IFCSHAPEREPRESENTATION(#15,'Body','SweptSolid',(#1041));
#1043=IFCPRODUCTDEFINITIONSHAPE($,$,(#1042));
#1044=IFCCARTESIANPOINT((54.250000000000171,-10.,91.499999999999659));
#1045=IFCAXIS2PLACEMENT3D(#1044,$,$);
#1046=IFCLOCALPLACEMENT(#47,#1045);
#1047=IFCOPENINGELEMENT('1WqDxEtY6PzDYCL4dFacrq',#6,'M_Fixed:0915 x 1220mm:216711:1',$,$,#1046,#1043,'216711',.OPENING.);
#1048=IFCRELVOIDSELEMENT('2DjbV_x2j23BsxEnT5wnFv',#6,$,$,#64,#1047);
#1049=IFCQUANTITYLENGTH('Depth',$,$,20.,$);
#1050=IFCQUANTITYLENGTH('Height',$,$,91.499999999999929,$);
#1051=IFCQUANTITYLENGTH('Width',$,$,121.99999999999977,$);
#1052=IFCELEMENTQUANTITY('2$BY6ZgjE8ClMFLdrMGcHn',#6,'Qto_OpeningElementBaseQuantities',$,$,(#1049,#1050,#1051));
#1053=IFCRELDEFINESBYPROPERTIES('3g7Fs8Zi2l6UQ04NUvYNcw',#6,$,$,(#1047),#1052);
#1054=IFCRELFILLSELEMENT('0ccsYXB2mY_1aQx_HXLjtb',#6,$,$,#1047,#552);
#1055=IFCAXIS2PLACEMENT3D(#10,$,$);
#1056=IFCLOCALPLACEMENT(#1046,#1055);
#1057=IFCCARTESIANPOINT((60.999999999999886,45.749999999999964));
#1058=IFCAXIS2PLACEMENT2D(#1057,#119);
#1059=IFCRECTANGLEPROFILEDEF(.AREA.,$,#1058,121.99999999999977,91.499999999999929);
#1060=IFCAXIS2PLACEMENT3D(#10,#149,#44);
#1061=IFCEXTRUDEDAREASOLID(#1059,#1060,#44,20.);
#1062=IFCSHAPEREPRESENTATION(#15,'Body','SweptSolid',(#1061));
#1063=IFCPRODUCTDEFINITIONSHAPE($,$,(#1062));
#1064=IFCCARTESIANPOINT((159.25000000000023,-10.,91.499999999999659));
#1065=IFCAXIS2PLACEMENT3D(#1064,$,$);
#1066=IFCLOCALPLACEMENT(#47,#1065);
#1067=IFCOPENINGELEMENT('0bsRMU0yHdgQbXo0IiTmsw',#6,'M_Fixed:0915 x 1220mm:216825:1',$,$,#1066,#1063,'216825',.OPENING.);
#1068=IFCRELVOIDSELEMENT('2DjbV_x2j23BsxEnT5wnE7',#6,$,$,#64,#1067);
#1069=IFCQUANTITYLENGTH('Depth',$,$,20.,$);
#1070=IFCQUANTITYLENGTH('Height',$,$,91.499999999999929,$);
#1071=IFCQUANTITYLENGTH('Width',$,$,121.99999999999977,$);
#1072=IFCELEMENTQUANTITY('38cVrFlYVjAbXtmY22LnB0',#6,'Qto_OpeningElementBaseQuantities',$,$,(#1069,#1070,#1071));
#1073=IFCRELDEFINESBYPROPERTIES('2CSzzu3l590ORZB$evWey7',#6,$,$,(#1067),#1072);
#1074=IFCRELFILLSELEMENT('0ibctdLRFTnkM1Lyd8f2gJ',#6,$,$,#1067,#579);
#1075=IFCAXIS2PLACEMENT3D(#10,$,$);
#1076=IFCLOCALPLACEMENT(#1066,#1075);
#1077=IFCCARTESIANPOINT((106.7,45.75));
#1078=IFCAXIS2PLACEMENT2D(#1077,#12);
#1079=IFCRECTANGLEPROFILEDEF(.AREA.,$,#1078,91.499999999999972,213.39999999999995);
#1080=IFCAXIS2PLACEMENT3D(#10,#45,#44);
#1081=IFCEXTRUDEDAREASOLID(#1079,#1080,#44,20.);
#1082=IFCSHAPEREPRESENTATION(#15,'Body','SweptSolid',(#1081));
#1083=IFCPRODUCTDEFINITIONSHAPE($,$,(#1082));
#1084=IFCCARTESIANPOINT((95.750000000000327,10.,-0.));
#1085=IFCAXIS2PLACEMENT3D(#1084,$,$);
#1086=IFCLOCALPLACEMENT(#113,#1085);
#1087=IFCOPENINGELEMENT('35p3bJDCHQStbcodVnktse',#6,'M_Single-Flush:0915 x 2134mm:216359:1',$,$,#1086,#1083,'216359',.OPENING.);
#1088=IFCRELVOIDSELEMENT('2DjbV_x2j23BsxEnT5wn1P',#6,$,$,#126,#1087);
#1089=IFCQUANTITYLENGTH('Depth',$,$,20.,$);
#1090=IFCQUANTITYLENGTH('Height',$,$,213.39999999999998,$);
#1091=IFCQUANTITYLENGTH('Width',$,$,91.499999999999986,$);
#1092=IFCELEMENTQUANTITY('2Va6spUIk4NhdQMDM6iLdd',#6,'Qto_OpeningElementBaseQuantities',$,$,(#1089,#1090,#1091));
#1093=IFCRELDEFINESBYPROPERTIES('36ohO4fe7E0bSLLK$pVSJR',#6,$,$,(#1087),#1092);
#1094=IFCRELFILLSELEMENT('0SnHQTe7c0b9emL4zC4vMB',#6,$,$,#1087,#369);
#1095=IFCAXIS2PLACEMENT3D(#10,#44,#186);
#1096=IFCLOCALPLACEMENT(#1086,#1095);
#1097=IFCCARTESIANPOINT((60.999999999999886,45.750000000000021));
#1098=IFCAXIS2PLACEMENT2D(#1097,#119);
#1099=IFCRECTANGLEPROFILEDEF(.AREA.,$,#1098,121.99999999999977,91.499999999999929);
#1100=IFCAXIS2PLACEMENT3D(#10,#149,#44);
#1101=IFCEXTRUDEDAREASOLID(#1099,#1100,#44,20.);
#1102=IFCSHAPEREPRESENTATION(#15,'Body','SweptSolid',(#1101));
#1103=IFCPRODUCTDEFINITIONSHAPE($,$,(#1102));
#1104=IFCCARTESIANPOINT((164.25000000000011,-10.,91.499999999999659));
#1105=IFCAXIS2PLACEMENT3D(#1104,$,$);
#1106=IFCLOCALPLACEMENT(#113,#1105);
#1107=IFCOPENINGELEMENT('0IGsq_JjsEummFrUL4uXZi',#6,'M_Fixed:0915 x 1220mm:216949:1',$,$,#1106,#1103,'216949',.OPENING.);
#1108=IFCRELVOIDSELEMENT('2DjbV_x2j23BsxEnT5wn8B',#6,$,$,#126,#1107);
#1109=IFCQUANTITYLENGTH('Depth',$,$,20.,$);
#1110=IFCQUANTITYLENGTH('Height',$,$,121.99999999999977,$);
#1111=IFCQUANTITYLENGTH('Width',$,$,91.499999999999986,$);
#1112=IFCELEMENTQUANTITY('3ekQIeOijXdIIwMGopdcu0',#6,'Qto_OpeningElementBaseQuantities',$,$,(#1109,#1110,#1111));
#1113=IFCRELDEFINESBYPROPERTIES('2RyrXvwPmNbyFyJ3VXTBf_',#6,$,$,(#1107),#1112);
#1114=IFCRELFILLSELEMENT('14kKsCCBQ$S7ux6efbXUod',#6,$,$,#1107,#657);
#1115=IFCAXIS2PLACEMENT3D(#10,$,$);
#1116=IFCLOCALPLACEMENT(#1106,#1115);
#1117=IFCCARTESIANPOINT((60.999999999999886,45.749999999999964));
#1118=IFCAXIS2PLACEMENT2D(#1117,#119);
#1119=IFCRECTANGLEPROFILEDEF(.AREA.,$,#1118,121.99999999999977,91.499999999999929);
#1120=IFCAXIS2PLACEMENT3D(#10,#149,#44);
#1121=IFCEXTRUDEDAREASOLID(#1119,#1120,#44,20.);
#1122=IFCSHAPEREPRESENTATION(#15,'Body','SweptSolid',(#1121));
#1123=IFCPRODUCTDEFINITIONSHAPE($,$,(#1122));
#1124=IFCCARTESIANPOINT((474.25000000000006,-10.,91.499999999999659));
#1125=IFCAXIS2PLACEMENT3D(#1124,$,$);
#1126=IFCLOCALPLACEMENT(#113,#1125);
#1127=IFCOPENINGELEMENT('27mvJmn_FzhHT3OuP3Lf$R',#6,'M_Fixed:0915 x 1220mm:217183:1',$,$,#1126,#1123,'217183',.OPENING.);
#1128=IFCRELVOIDSELEMENT('2DjbV_x2j23BsxEnT5wmqX',#6,$,$,#126,#1127);
#1129=IFCQUANTITYLENGTH('Depth',$,$,20.,$);
#1130=IFCQUANTITYLENGTH('Height',$,$,121.99999999999977,$);
#1131=IFCQUANTITYLENGTH('Width',$,$,91.499999999999886,$);
#1132=IFCELEMENTQUANTITY('2Z2bs_auh9xWtK2HX1l904',#6,'Qto_OpeningElementBaseQuantities',$,$,(#1129,#1130,#1131));
#1133=IFCRELDEFINESBYPROPERTIES('2ShikPu567mldxaSCzir9l',#6,$,$,(#1127),#1132);
#1134=IFCRELFILLSELEMENT('1$M0Ocwm2XB5wrJAK4Q3ek',#6,$,$,#1127,#683);
#1135=IFCAXIS2PLACEMENT3D(#10,$,$);
#1136=IFCLOCALPLACEMENT(#1126,#1135);
#1137=IFCCARTESIANPOINT((60.999999999999886,45.749999999999964));
#1138=IFCAXIS2PLACEMENT2D(#1137,#119);
#1139=IFCRECTANGLEPROFILEDEF(.AREA.,$,#1138,121.99999999999977,91.499999999999929);
#1140=IFCAXIS2PLACEMENT3D(#10,#149,#44);
#1141=IFCEXTRUDEDAREASOLID(#1139,#1140,#44,20.);
#1142=IFCSHAPEREPRESENTATION(#15,'Body','SweptSolid',(#1141));
#1143=IFCPRODUCTDEFINITIONSHAPE($,$,(#1142));
#1144=IFCCARTESIANPOINT((359.25,-10.,91.499999999999659));
#1145=IFCAXIS2PLACEMENT3D(#1144,$,$);
#1146=IFCLOCALPLACEMENT(#113,#1145);
#1147=IFCOPENINGELEMENT('3REbwjyKqf4QNG2c70hNmY',#6,'M_Fixed:0915 x 1220mm:217290:1',$,$,#1146,#1143,'217290',.OPENING.);
#1148=IFCRELVOIDSELEMENT('2DjbV_x2j23BsxEnT5wmsq',#6,$,$,#126,#1147);
#1149=IFCQUANTITYLENGTH('Depth',$,$,20.,$);
#1150=IFCQUANTITYLENGTH('Height',$,$,121.99999999999977,$);
#1151=IFCQUANTITYLENGTH('Width',$,$,91.499999999999886,$);
#1152=IFCELEMENTQUANTITY('0xEc$a3LlH75P9W$wRTfvF',#6,'Qto_OpeningElementBaseQuantities',$,$,(#1149,#1150,#1151));
#1153=IFCRELDEFINESBYPROPERTIES('0BIkF7cPKLrVVHdl5Gl7SC',#6,$,$,(#1147),#1152);
#1154=IFCRELFILLSELEMENT('2mt49z$VadnXHmYx_6wf55',#6,$,$,#1147,#709);
#1155=IFCAXIS2PLACEMENT3D(#10,$,$);
#1156=IFCLOCALPLACEMENT(#1146,#1155);
#1157=IFCCARTESIANPOINT((106.7,45.75));
#1158=IFCAXIS2PLACEMENT2D(#1157,#12);
#1159=IFCRECTANGLEPROFILEDEF(.AREA.,$,#1158,91.499999999999972,213.39999999999995);
#1160=IFCAXIS2PLACEMENT3D(#10,#45,#44);
#1161=IFCEXTRUDEDAREASOLID(#1159,#1160,#44,20.);
#1162=IFCSHAPEREPRESENTATION(#15,'Body','SweptSolid',(#1161));
#1163=IFCPRODUCTDEFINITIONSHAPE($,$,(#1162));
#1164=IFCCARTESIANPOINT((275.75000000000074,10.,-0.));
#1165=IFCAXIS2PLACEMENT3D(#1164,$,$);
#1166=IFCLOCALPLACEMENT(#151,#1165);
#1167=IFCOPENINGELEMENT('1yuwaIu9QOPCA5nLPJDNIB',#6,'M_Single-Flush:0915 x 2134mm:216593:1',$,$,#1166,#1163,'216593',.OPENING.);
#1168=IFCRELVOIDSELEMENT('2DjbV_x2j23BsxEnT5wnDl',#6,$,$,#163,#1167);
#1169=IFCQUANTITYLENGTH('Depth',$,$,20.,$);
#1170=IFCQUANTITYLENGTH('Height',$,$,213.39999999999998,$);
#1171=IFCQUANTITYLENGTH('Width',$,$,91.499999999999986,$);
#1172=IFCELEMENTQUANTITY('1bHLn9qOPsbFX0ouXjxxBA',#6,'Qto_OpeningElementBaseQuantities',$,$,(#1169,#1170,#1171));
#1173=IFCRELDEFINESBYPROPERTIES('1e$VytDzbHjEANJ_uNiUGF',#6,$,$,(#1167),#1172);
#1174=IFCRELFILLSELEMENT('0iPQiaAR1D171xHLAMP0Zw',#6,$,$,#1167,#422);
#1175=IFCAXIS2PLACEMENT3D(#10,#44,#186);
#1176=IFCLOCALPLACEMENT(#1166,#1175);
#1177=IFCCARTESIANPOINT((106.7,45.74999999999995));
#1178=IFCAXIS2PLACEMENT2D(#1177,#12);
#1179=IFCRECTANGLEPROFILEDEF(.AREA.,$,#1178,91.499999999999972,213.39999999999995);
#1180=IFCAXIS2PLACEMENT3D(#10,#45,#44);
#1181=IFCEXTRUDEDAREASOLID(#1179,#1180,#44,20.);
#1182=IFCSHAPEREPRESENTATION(#15,'Body','SweptSolid',(#1181));
#1183=IFCPRODUCTDEFINITIONSHAPE($,$,(#1182));
#1184=IFCCARTESIANPOINT((385.74999999999966,10.,-0.));
#1185=IFCAXIS2PLACEMENT3D(#1184,$,$);
#1186=IFCLOCALPLACEMENT(#188,#1185);
#1187=IFCOPENINGELEMENT('0lnC33zhjIrTLs8aivq2Fw',#6,'M_Single-Flush:0915 x 2134mm:216540:1',$,$,#1186,#1183,'216540',.OPENING.);
#1188=IFCRELVOIDSELEMENT('2DjbV_x2j23BsxEnT5wn2Y',#6,$,$,#200,#1187);
#1189=IFCQUANTITYLENGTH('Depth',$,$,20.,$);
#1190=IFCQUANTITYLENGTH('Height',$,$,213.39999999999998,$);
#1191=IFCQUANTITYLENGTH('Width',$,$,91.499999999999986,$);
#1192=IFCELEMENTQUANTITY('3UzK$QuVt4fIY5jwHNWLJC',#6,'Qto_OpeningElementBaseQuantities',$,$,(#1189,#1190,#1191));
#1193=IFCRELDEFINESBYPROPERTIES('0Ceflilgra5m4M0EKofli3',#6,$,$,(#1187),#1192);
#1194=IFCRELFILLSELEMENT('1Nl7dVYhWsKmI8o0zUn6Tc',#6,$,$,#1187,#396);
#1195=IFCAXIS2PLACEMENT3D(#10,#44,#186);
#1196=IFCLOCALPLACEMENT(#1186,#1195);
#1197=IFCCARTESIANPOINT((60.999999999999886,45.749999999999964));
#1198=IFCAXIS2PLACEMENT2D(#1197,#119);
#1199=IFCRECTANGLEPROFILEDEF(.AREA.,$,#1198,121.99999999999977,91.499999999999929);
#1200=IFCAXIS2PLACEMENT3D(#10,#45,#44);
#1201=IFCEXTRUDEDAREASOLID(#1199,#1200,#44,20.);
#1202=IFCSHAPEREPRESENTATION(#15,'Body','SweptSolid',(#1201));
#1203=IFCPRODUCTDEFINITIONSHAPE($,$,(#1202));
#1204=IFCCARTESIANPOINT((115.74999999999994,10.,91.499999999999659));
#1205=IFCAXIS2PLACEMENT3D(#1204,$,$);
#1206=IFCLOCALPLACEMENT(#224,#1205);
#1207=IFCOPENINGELEMENT('0En3ONsXurcqbjUJFYH2m5',#6,'M_Fixed:0915 x 1220mm:216861:1',$,$,#1206,#1203,'216861',.OPENING.);
#1208=IFCRELVOIDSELEMENT('2DjbV_x2j23BsxEnT5wn9Z',#6,$,$,#236,#1207);
#1209=IFCQUANTITYLENGTH('Depth',$,$,20.,$);
#1210=IFCQUANTITYLENGTH('Height',$,$,91.499999999999929,$);
#1211=IFCQUANTITYLENGTH('Width',$,$,121.99999999999977,$);
#1212=IFCELEMENTQUANTITY('0XULI$oKAt_B3$0AZpzL37',#6,'Qto_OpeningElementBaseQuantities',$,$,(#1209,#1210,#1211));
#1213=IFCRELDEFINESBYPROPERTIES('0xqwV4zppAQsBsQUulaB9l',#6,$,$,(#1207),#1212);
#1214=IFCRELFILLSELEMENT('3qKjt9l11COeahTb_nTjAH',#6,$,$,#1207,#605);
#1215=IFCAXIS2PLACEMENT3D(#10,#44,#186);
#1216=IFCLOCALPLACEMENT(#1206,#1215);
#1217=IFCCARTESIANPOINT((60.999999999999886,45.749999999999964));
#1218=IFCAXIS2PLACEMENT2D(#1217,#119);
#1219=IFCRECTANGLEPROFILEDEF(.AREA.,$,#1218,121.99999999999977,91.499999999999929);
#1220=IFCAXIS2PLACEMENT3D(#10,#149,#44);
#1221=IFCEXTRUDEDAREASOLID(#1219,#1220,#44,20.);
#1222=IFCSHAPEREPRESENTATION(#15,'Body','SweptSolid',(#1221));
#1223=IFCPRODUCTDEFINITIONSHAPE($,$,(#1222));
#1224=IFCCARTESIANPOINT((134.25,-10.,91.499999999999659));
#1225=IFCAXIS2PLACEMENT3D(#1224,$,$);
#1226=IFCLOCALPLACEMENT(#224,#1225);
#1227=IFCOPENINGELEMENT('2MKqa_ZBL3XzL2YsFtd$Tg',#6,'M_Fixed:0915 x 1220mm:216895:1',$,$,#1226,#1223,'216895',.OPENING.);
#1228=IFCRELVOIDSELEMENT('2DjbV_x2j23BsxEnT5wn91',#6,$,$,#236,#1227);
#1229=IFCQUANTITYLENGTH('Depth',$,$,20.,$);
#1230=IFCQUANTITYLENGTH('Height',$,$,91.499999999999929,$);
#1231=IFCQUANTITYLENGTH('Width',$,$,121.99999999999977,$);
#1232=IFCELEMENTQUANTITY('1bIymHI0T8NxLZtGTN$Xf9',#6,'Qto_OpeningElementBaseQuantities',$,$,(#1229,#1230,#1231));
#1233=IFCRELDEFINESBYPROPERTIES('0mWZrT749MauUbjV3qvL2r',#6,$,$,(#1227),#1232);
#1234=IFCRELFILLSELEMENT('2doQD_EMGzSFQ3gMVAgtel',#6,$,$,#1227,#631);
#1235=IFCAXIS2PLACEMENT3D(#10,$,$);
#1236=IFCLOCALPLACEMENT(#1226,#1235);
#1237=IFCCARTESIANPOINT((106.7,45.75));
#1238=IFCAXIS2PLACEMENT2D(#1237,#12);
#1239=IFCRECTANGLEPROFILEDEF(.AREA.,$,#1238,91.499999999999972,213.39999999999995);
#1240=IFCAXIS2PLACEMENT3D(#10,#149,#44);
#1241=IFCEXTRUDEDAREASOLID(#1239,#1240,#44,20.);
#1242=IFCSHAPEREPRESENTATION(#15,'Body','SweptSolid',(#1241));
#1243=IFCPRODUCTDEFINITIONSHAPE($,$,(#1242));
#1244=IFCCARTESIANPOINT((484.25000000000034,-10.,-0.));
#1245=IFCAXIS2PLACEMENT3D(#1244,$,$);
#1246=IFCLOCALPLACEMENT(#260,#1245);
#1247=IFCOPENINGELEMENT('3MA6j0VaQHhen51L35WCI6',#6,'M_Single-Flush:0915 x 2134mm:216614:1',$,$,#1246,#1243,'216614',.OPENING.);
#1248=IFCRELVOIDSELEMENT('2DjbV_x2j23BsxEnT5wnDO',#6,$,$,#272,#1247);
#1249=IFCQUANTITYLENGTH('Depth',$,$,20.,$);
#1250=IFCQUANTITYLENGTH('Height',$,$,213.39999999999998,$);
#1251=IFCQUANTITYLENGTH('Width',$,$,91.499999999999986,$);
#1252=IFCELEMENTQUANTITY('0pEGnDzpY2jpGEBDvOHqA0',#6,'Qto_OpeningElementBaseQuantities',$,$,(#1249,#1250,#1251));
#1253=IFCRELDEFINESBYPROPERTIES('2mR0Sm7vwKlYCQJ8vUneen',#6,$,$,(#1247),#1252);
#1254=IFCRELFILLSELEMENT('1IRiR1lteOQrTVZ7DL_XN9',#6,$,$,#1247,#448);
#1255=IFCAXIS2PLACEMENT3D(#10,$,$);
#1256=IFCLOCALPLACEMENT(#1246,#1255);
#1257=IFCUNITASSIGNMENT((#7,#8,#9,#108,#311));
#1258=IFCAXIS2PLACEMENT3D(#10,$,$);
#1259=IFCAXIS2PLACEMENT3D(#10,$,$);
#1260=IFCAXIS2PLACEMENT3D(#10,$,$);
#1261=IFCAXIS2PLACEMENT3D(#10,$,$);
#1262=IFCACTORROLE(.USERDEFINED.,'CONTRIBUTOR',$);
#1263=IFCORGANIZATION('IfcOpenShell','IfcOpenShell','IfcOpenShell is an open source software library that helps users and software developers to work with IFC data.',(#1262),$);
#1264=IFCAPPLICATION(#1263,'0.8.5','Bonsai','Bonsai-0.8.5');
#1265=IFCOWNERHISTORY(#5,#1264,.READWRITE.,.ADDED.,1788584357,#5,#1264,1788584357);
#1266=IFCACTOR('35VKeDEM5029a$P9It_G6B',#1265,$,$,$,#1263);
#1267=IFCOWNERHISTORY(#5,#1264,.READWRITE.,.ADDED.,1788584357,#5,#1264,1788584357);
#1268=IFCPROPERTYSET('2RAZ6iyN9A7wSUpbTbFVOS',#1267,'PEnum_AddressType',$,(#1271,#1272,#1273));
#1269=IFCOWNERHISTORY(#5,#1264,.READWRITE.,.ADDED.,1788584357,#5,#1264,1788584357);
#1270=IFCRELDEFINESBYPROPERTIES('1fbYHRxV91lxSl4CXnMhmC',#1269,$,$,(#1266),#1268);
#1271=IFCPROPERTYSINGLEVALUE('Purpose',$,IFCLABEL('OTHER'),$);
#1272=IFCPROPERTYSINGLEVALUE('UserDefinedPurpose',$,IFCLABEL('WEBPAGE'),$);
#1273=IFCPROPERTYSINGLEVALUE('WWWHomePageURL',$,IFCLABEL('https://ifcopenshell.org'),$);
#1274=IFCAPPLICATION(#1263,'0.8.5','Bonsai','Bonsai-0.8.5');
#1275=IFCOWNERHISTORY(#5,#2,$,.MODIFIED.,1788584357,#5,#1274,1770657044);
#1276=IFCOWNERHISTORY(#5,#2,$,.MODIFIED.,1788584447,#5,#1274,1770657044);
ENDSEC;
END-ISO-10303-21;
